<svg width="455" height="242" viewBox="0 0 455 242" fill="none" xmlns="http://www.w3.org/2000/svg">
<mask id="path-1-outside-1_139_1736" maskUnits="userSpaceOnUse" x="-0.978516" y="-0.802734" width="456" height="243" fill="black">
<rect fill="white" x="-0.978516" y="-0.802734" width="456" height="243"/>
<path d="M72.6014 196.994C70.96 200.277 68.498 203.149 65.2152 205.611C62.0693 208.21 58.8549 209.988 55.5722 210.945C52.4262 212.04 50.3061 212.587 49.2119 212.587C48.1176 212.587 45.3136 212.245 40.7999 211.561H40.5947C40.4579 211.561 40.2527 211.424 39.9792 211.151C32.8666 207.868 29.3103 203.422 29.3103 197.814C29.3103 192.89 31.8407 187.966 36.9016 183.042C43.7407 176.477 51.1268 173.467 59.0601 174.015C60.0176 174.151 62.2745 174.698 65.8308 175.656C66.2411 176.066 66.5147 176.271 66.6514 176.271C74.448 182.29 76.4313 189.197 72.6014 196.994ZM148.177 95.2288C153.374 93.4507 161.308 92.2197 171.976 91.5357C174.438 92.9036 175.396 95.7076 174.849 99.9478C174.438 104.188 172.866 107.402 170.13 109.591C166.847 114.515 163.359 117.866 159.666 119.644C157.614 120.602 155.084 121.491 152.075 122.311C149.202 122.995 145.646 123.953 141.406 125.184C138.67 132.844 135.593 143.239 132.173 156.37C128.89 169.501 126.565 178.255 125.197 182.632C122.051 192.754 119.795 198.02 118.427 198.43C115.281 203.354 111.793 206.432 107.963 207.663C104.27 208.894 100.85 208.894 97.7044 207.663C94.5585 206.568 92.0964 204.517 90.3183 201.508C88.6769 198.635 88.3349 195.558 89.2924 192.275C88.8821 188.855 89.4976 179.281 91.1389 163.551C92.7803 147.821 93.601 138.794 93.601 136.468C93.0539 135.921 92.37 135.579 91.5493 135.442C90.7286 135.306 90.1815 134.964 89.9079 134.417C88.6769 134.006 87.7194 133.254 87.0355 132.16C85.8045 130.245 84.5051 128.877 83.1373 128.056C80.6752 128.33 78.6919 127.646 77.1873 126.005C75.5459 124.226 74.7252 122.175 74.7252 119.849C74.7252 117.524 75.5459 115.13 77.1873 112.668C78.8287 110.206 81.6327 108.291 85.5993 106.924L106.527 100.358C108.168 89.2789 113.366 76.695 122.12 62.6066C124.172 59.1871 126.36 55.5624 128.685 51.7325C131.147 47.7659 134.498 44.1412 138.739 40.8584C142.979 37.4389 147.356 34.8401 151.87 33.0619C156.52 31.147 161.171 29.9844 165.821 29.574C170.609 29.1637 174.986 29.2321 178.952 29.7792C187.296 30.8734 192.836 33.6774 195.571 38.1912C198.854 43.936 200.29 49.1337 199.88 53.7842C199.606 58.298 197.76 61.7175 194.34 64.0428C188.869 67.5991 184.218 68.1462 180.388 65.6842C178.884 64.8635 177.79 63.4957 177.106 61.5807C176.422 59.6658 175.122 58.9819 173.207 59.529C171.293 60.0762 169.104 61.3756 166.642 63.4273C164.18 65.3422 161.649 67.8043 159.051 70.8135C156.589 73.8226 154.4 76.9002 152.485 80.0462C147.698 87.2955 146.262 92.3564 148.177 95.2288ZM193.426 99.1271C197.256 95.434 201.496 93.3139 206.147 92.7668C210.934 92.0829 215.106 92.5616 218.662 94.203C222.356 95.8443 225.023 98.5116 226.664 102.205C228.442 105.761 228.237 109.864 226.049 114.515C221.398 121.354 217.705 128.74 214.969 136.673C212.234 144.607 209.703 152.608 207.378 160.678C219.962 152.745 230.494 140.914 238.974 125.184C241.437 120.533 244.104 115.814 246.976 111.027L250.054 105.282L256.209 95.434C257.03 92.8352 258.466 91.1938 260.517 90.5099C262.569 89.6892 264.758 89.2789 267.083 89.2789C269.545 89.2789 272.007 89.3473 274.469 89.484C276.931 89.484 279.188 88.8001 281.24 87.4323C283.291 86.0645 285.685 85.5858 288.421 85.9961C291.293 86.2697 293.824 87.1588 296.012 88.6634C298.337 90.1679 300.047 92.0145 301.141 94.203C302.372 96.2547 302.509 98.3064 301.552 100.358C295.807 112.668 287.942 135.579 277.957 169.09C275.632 176.613 273.443 182.905 271.392 187.966C267.972 192.206 263.663 195.079 258.466 196.583C253.268 198.088 248.344 198.498 243.693 197.814C239.18 197.267 235.555 195.694 232.819 193.096C230.084 190.633 229.468 187.488 230.973 183.658C227.143 186.804 223.176 189.676 219.073 192.275C214.969 194.874 209.977 196.583 204.095 197.404C198.351 198.225 192.811 197.951 187.476 196.583C182.142 195.352 177.56 192.89 173.73 189.197C170.037 185.504 168.054 180.58 167.78 174.425C166.959 152.814 175.508 127.714 193.426 99.1271ZM325.443 100.358C334.607 96.665 340.762 96.5966 343.908 100.153C345.55 102.068 346.37 104.735 346.37 108.155V109.18C351.431 103.299 360.254 98.3748 372.837 94.4081C386.105 90.3047 397.048 89.1421 405.665 90.9202C416.881 93.2455 423.173 100.563 424.541 112.874C425.635 123.269 423.241 136.468 417.36 152.472C415.445 156.575 413.94 159.926 412.846 162.525C411.888 164.987 410.999 167.244 410.179 169.296C408.401 173.126 405.596 177.708 401.767 183.042C399.578 187.146 396.159 190.292 391.508 192.48C386.994 194.668 382.481 195.9 377.967 196.173C373.59 196.583 369.965 195.9 367.093 194.121C364.22 192.48 363.4 189.813 364.631 186.12C367.777 177.639 370.375 169.911 372.427 162.935C374.479 155.96 376.599 150.01 378.787 145.085C380.839 138.11 381.113 133.733 379.608 131.954C378.377 130.587 376.257 130.792 373.248 132.57C370.649 134.211 368.802 136.126 367.708 138.315C365.246 140.093 360.596 147.206 353.757 159.653C351.842 163.072 349.927 166.492 348.012 169.911C346.234 173.194 344.524 176.271 342.882 179.144C341.378 182.016 340.01 184.41 338.779 186.325C337.685 188.24 336.659 189.471 335.701 190.018C334.881 190.702 334.129 191.112 333.445 191.249C332.897 191.523 332.419 191.796 332.008 192.07C331.598 192.343 331.256 193.232 330.983 194.737C330.435 197.883 327.153 200.208 321.134 201.713C311.423 204.175 302.669 203.764 294.872 200.482C292.274 199.387 290.222 197.883 288.717 195.968C285.571 189.676 290.974 168.27 304.926 131.749C309.85 118.892 313.064 111.232 314.569 108.77C317.988 103.572 320.177 100.632 321.134 99.9478C322.229 99.2639 323.665 99.4006 325.443 100.358Z"/>
</mask>
<path d="M72.6014 196.994C70.96 200.277 68.498 203.149 65.2152 205.611C62.0693 208.21 58.8549 209.988 55.5722 210.945C52.4262 212.04 50.3061 212.587 49.2119 212.587C48.1176 212.587 45.3136 212.245 40.7999 211.561H40.5947C40.4579 211.561 40.2527 211.424 39.9792 211.151C32.8666 207.868 29.3103 203.422 29.3103 197.814C29.3103 192.89 31.8407 187.966 36.9016 183.042C43.7407 176.477 51.1268 173.467 59.0601 174.015C60.0176 174.151 62.2745 174.698 65.8308 175.656C66.2411 176.066 66.5147 176.271 66.6514 176.271C74.448 182.29 76.4313 189.197 72.6014 196.994ZM148.177 95.2288C153.374 93.4507 161.308 92.2197 171.976 91.5357C174.438 92.9036 175.396 95.7076 174.849 99.9478C174.438 104.188 172.866 107.402 170.13 109.591C166.847 114.515 163.359 117.866 159.666 119.644C157.614 120.602 155.084 121.491 152.075 122.311C149.202 122.995 145.646 123.953 141.406 125.184C138.67 132.844 135.593 143.239 132.173 156.37C128.89 169.501 126.565 178.255 125.197 182.632C122.051 192.754 119.795 198.02 118.427 198.43C115.281 203.354 111.793 206.432 107.963 207.663C104.27 208.894 100.85 208.894 97.7044 207.663C94.5585 206.568 92.0964 204.517 90.3183 201.508C88.6769 198.635 88.3349 195.558 89.2924 192.275C88.8821 188.855 89.4976 179.281 91.1389 163.551C92.7803 147.821 93.601 138.794 93.601 136.468C93.0539 135.921 92.37 135.579 91.5493 135.442C90.7286 135.306 90.1815 134.964 89.9079 134.417C88.6769 134.006 87.7194 133.254 87.0355 132.16C85.8045 130.245 84.5051 128.877 83.1373 128.056C80.6752 128.33 78.6919 127.646 77.1873 126.005C75.5459 124.226 74.7252 122.175 74.7252 119.849C74.7252 117.524 75.5459 115.13 77.1873 112.668C78.8287 110.206 81.6327 108.291 85.5993 106.924L106.527 100.358C108.168 89.2789 113.366 76.695 122.12 62.6066C124.172 59.1871 126.36 55.5624 128.685 51.7325C131.147 47.7659 134.498 44.1412 138.739 40.8584C142.979 37.4389 147.356 34.8401 151.87 33.0619C156.52 31.147 161.171 29.9844 165.821 29.574C170.609 29.1637 174.986 29.2321 178.952 29.7792C187.296 30.8734 192.836 33.6774 195.571 38.1912C198.854 43.936 200.29 49.1337 199.88 53.7842C199.606 58.298 197.76 61.7175 194.34 64.0428C188.869 67.5991 184.218 68.1462 180.388 65.6842C178.884 64.8635 177.79 63.4957 177.106 61.5807C176.422 59.6658 175.122 58.9819 173.207 59.529C171.293 60.0762 169.104 61.3756 166.642 63.4273C164.18 65.3422 161.649 67.8043 159.051 70.8135C156.589 73.8226 154.4 76.9002 152.485 80.0462C147.698 87.2955 146.262 92.3564 148.177 95.2288ZM193.426 99.1271C197.256 95.434 201.496 93.3139 206.147 92.7668C210.934 92.0829 215.106 92.5616 218.662 94.203C222.356 95.8443 225.023 98.5116 226.664 102.205C228.442 105.761 228.237 109.864 226.049 114.515C221.398 121.354 217.705 128.74 214.969 136.673C212.234 144.607 209.703 152.608 207.378 160.678C219.962 152.745 230.494 140.914 238.974 125.184C241.437 120.533 244.104 115.814 246.976 111.027L250.054 105.282L256.209 95.434C257.03 92.8352 258.466 91.1938 260.517 90.5099C262.569 89.6892 264.758 89.2789 267.083 89.2789C269.545 89.2789 272.007 89.3473 274.469 89.484C276.931 89.484 279.188 88.8001 281.24 87.4323C283.291 86.0645 285.685 85.5858 288.421 85.9961C291.293 86.2697 293.824 87.1588 296.012 88.6634C298.337 90.1679 300.047 92.0145 301.141 94.203C302.372 96.2547 302.509 98.3064 301.552 100.358C295.807 112.668 287.942 135.579 277.957 169.09C275.632 176.613 273.443 182.905 271.392 187.966C267.972 192.206 263.663 195.079 258.466 196.583C253.268 198.088 248.344 198.498 243.693 197.814C239.18 197.267 235.555 195.694 232.819 193.096C230.084 190.633 229.468 187.488 230.973 183.658C227.143 186.804 223.176 189.676 219.073 192.275C214.969 194.874 209.977 196.583 204.095 197.404C198.351 198.225 192.811 197.951 187.476 196.583C182.142 195.352 177.56 192.89 173.73 189.197C170.037 185.504 168.054 180.58 167.78 174.425C166.959 152.814 175.508 127.714 193.426 99.1271ZM325.443 100.358C334.607 96.665 340.762 96.5966 343.908 100.153C345.55 102.068 346.37 104.735 346.37 108.155V109.18C351.431 103.299 360.254 98.3748 372.837 94.4081C386.105 90.3047 397.048 89.1421 405.665 90.9202C416.881 93.2455 423.173 100.563 424.541 112.874C425.635 123.269 423.241 136.468 417.36 152.472C415.445 156.575 413.94 159.926 412.846 162.525C411.888 164.987 410.999 167.244 410.179 169.296C408.401 173.126 405.596 177.708 401.767 183.042C399.578 187.146 396.159 190.292 391.508 192.48C386.994 194.668 382.481 195.9 377.967 196.173C373.59 196.583 369.965 195.9 367.093 194.121C364.22 192.48 363.4 189.813 364.631 186.12C367.777 177.639 370.375 169.911 372.427 162.935C374.479 155.96 376.599 150.01 378.787 145.085C380.839 138.11 381.113 133.733 379.608 131.954C378.377 130.587 376.257 130.792 373.248 132.57C370.649 134.211 368.802 136.126 367.708 138.315C365.246 140.093 360.596 147.206 353.757 159.653C351.842 163.072 349.927 166.492 348.012 169.911C346.234 173.194 344.524 176.271 342.882 179.144C341.378 182.016 340.01 184.41 338.779 186.325C337.685 188.24 336.659 189.471 335.701 190.018C334.881 190.702 334.129 191.112 333.445 191.249C332.897 191.523 332.419 191.796 332.008 192.07C331.598 192.343 331.256 193.232 330.983 194.737C330.435 197.883 327.153 200.208 321.134 201.713C311.423 204.175 302.669 203.764 294.872 200.482C292.274 199.387 290.222 197.883 288.717 195.968C285.571 189.676 290.974 168.27 304.926 131.749C309.85 118.892 313.064 111.232 314.569 108.77C317.988 103.572 320.177 100.632 321.134 99.9478C322.229 99.2639 323.665 99.4006 325.443 100.358Z" fill="#FF8400"/>
<path d="M72.6014 196.994L98.8172 210.102L98.8634 210.009L98.9089 209.917L72.6014 196.994ZM65.2152 205.611L47.6291 182.163L47.0786 182.576L46.5481 183.014L65.2152 205.611ZM55.5722 210.945L47.3653 182.808L46.6485 183.017L45.9432 183.262L55.5722 210.945ZM40.7999 211.561L45.1907 182.582L43.0077 182.251H40.7999V211.561ZM39.9792 211.151L60.7046 190.425L57.0082 186.729L52.2619 184.538L39.9792 211.151ZM36.9016 183.042L16.6034 161.898L16.5325 161.966L16.462 162.035L36.9016 183.042ZM59.0601 174.015L63.2052 144.999L62.1451 144.848L61.0767 144.774L59.0601 174.015ZM65.8308 175.656L86.5562 154.931L81.0161 149.39L73.4506 147.354L65.8308 175.656ZM66.6514 176.271L84.5615 153.07L76.6482 146.961H66.6514V176.271ZM72.6014 196.994L46.3856 183.886C46.6692 183.319 46.9895 182.862 47.2699 182.535C47.5423 182.217 47.7027 182.108 47.6291 182.163L65.2152 205.611L82.8014 229.059C89.29 224.193 94.9113 217.914 98.8172 210.102L72.6014 196.994ZM65.2152 205.611L46.5481 183.014C46.2194 183.285 46.1172 183.324 46.2571 183.246C46.406 183.164 46.7796 182.979 47.3653 182.808L55.5722 210.945L63.779 239.083C71.5544 236.815 78.2463 232.864 83.8824 228.208L65.2152 205.611ZM55.5722 210.945L45.9432 183.262C44.7822 183.666 44.2925 183.798 44.2987 183.796C44.3131 183.792 44.68 183.696 45.3067 183.59C45.6332 183.534 46.1136 183.461 46.7173 183.4C47.3071 183.34 48.1616 183.277 49.2119 183.277V212.587V241.897C53.6186 241.897 57.377 240.962 58.9466 240.557C61.0729 240.008 63.2162 239.319 65.2012 238.629L55.5722 210.945ZM49.2119 212.587V183.277C49.7888 183.277 50.2028 183.298 50.3654 183.307C50.5526 183.317 50.6508 183.326 50.6319 183.325C50.5829 183.32 50.3391 183.297 49.8363 183.236C48.8327 183.113 47.3149 182.903 45.1907 182.582L40.7999 211.561L36.409 240.54C40.0397 241.09 45.3935 241.897 49.2119 241.897V212.587ZM40.7999 211.561V182.251H40.5947V211.561V240.871H40.7999V211.561ZM40.5947 211.561V182.251C45.3366 182.251 49.0728 183.405 51.3648 184.321C53.7167 185.262 55.4887 186.332 56.5966 187.071C58.737 188.498 60.1528 189.873 60.7046 190.425L39.9792 211.151L19.2538 231.876C20.0791 232.701 21.7343 234.282 24.0799 235.846C25.6423 236.888 31.7162 240.871 40.5947 240.871V211.561ZM39.9792 211.151L52.2619 184.538C51.3681 184.126 52.9381 184.636 54.8649 187.045C57.176 189.933 58.6205 193.854 58.6205 197.814H29.3103H9.53674e-05C9.53674e-05 219.339 15.008 231.907 27.6965 237.763L39.9792 211.151ZM29.3103 197.814H58.6205C58.6205 200.565 57.8743 202.664 57.2775 203.825C56.7541 204.843 56.4912 204.876 57.3412 204.049L36.9016 183.042L16.462 162.035C8.21578 170.058 9.53674e-05 182.076 9.53674e-05 197.814H29.3103ZM36.9016 183.042L57.1998 204.186C58.4402 202.995 58.949 202.875 58.6292 203.005C58.4728 203.069 58.2068 203.155 57.8636 203.21C57.5201 203.265 57.231 203.268 57.0435 203.255L59.0601 174.015L61.0767 144.774C43.3143 143.549 28.1573 150.806 16.6034 161.898L36.9016 183.042ZM59.0601 174.015L54.915 203.03C54.5088 202.972 54.2203 202.92 54.1017 202.898C53.9688 202.873 53.9028 202.858 53.9222 202.863C53.9701 202.873 54.1693 202.917 54.5654 203.013C55.3589 203.205 56.5503 203.511 58.2109 203.958L65.8308 175.656L73.4506 147.354C70.4797 146.554 66.3053 145.442 63.2052 144.999L59.0601 174.015ZM65.8308 175.656L45.1054 196.381C45.7167 196.993 47.0101 198.255 48.7576 199.566C49.6202 200.213 51.2293 201.356 53.4153 202.449C55.1256 203.304 59.9762 205.582 66.6514 205.582V176.271V146.961C73.2583 146.961 78.0234 149.213 79.6311 150.017C81.7145 151.059 83.204 152.125 83.9298 152.669C85.4037 153.775 86.3551 154.729 86.5562 154.931L65.8308 175.656ZM66.6514 176.271L48.7414 199.473C49.4932 200.053 47.0818 198.469 45.8144 194.055C44.3972 189.119 45.7056 185.269 46.2939 184.071L72.6014 196.994L98.9089 209.917C103.327 200.923 105.559 189.72 102.158 177.877C98.9075 166.555 91.6062 158.508 84.5615 153.07L66.6514 176.271ZM148.177 95.2288L123.789 111.487L136.309 130.267L157.664 122.961L148.177 95.2288ZM171.976 91.5358L186.211 65.914L178.689 61.7351L170.101 62.2856L171.976 91.5358ZM174.849 99.9478L145.78 96.1969L145.72 96.6599L145.675 97.1245L174.849 99.9478ZM170.13 109.591L151.82 86.7034L148.267 89.5461L145.742 93.3325L170.13 109.591ZM159.666 119.644L172.061 146.205L172.222 146.13L172.381 146.053L159.666 119.644ZM152.075 122.311L158.864 150.825L159.327 150.714L159.787 150.589L152.075 122.311ZM141.406 125.184L133.234 97.0359L118.843 101.214L113.803 115.326L141.406 125.184ZM132.173 156.37L103.809 148.983L103.773 149.122L103.738 149.261L132.173 156.37ZM125.197 182.632L97.2214 173.889L97.2147 173.911L97.208 173.932L125.197 182.632ZM118.427 198.43L110.005 170.356L99.5843 173.482L93.7271 182.65L118.427 198.43ZM107.963 207.663L98.9938 179.759L98.8438 179.807L98.6943 179.857L107.963 207.663ZM97.7044 207.663L108.385 180.368L107.863 180.163L107.333 179.979L97.7044 207.663ZM90.3183 201.508L64.8699 216.049L64.9758 216.235L65.0844 216.418L90.3183 201.508ZM89.2924 192.275L117.43 200.482L119.108 194.731L118.394 188.783L89.2924 192.275ZM91.139 163.551L61.987 160.509V160.509L91.139 163.551ZM93.601 136.468H122.911V124.328L114.326 115.743L93.601 136.468ZM91.5493 135.442L96.3679 106.531L96.3678 106.531L91.5493 135.442ZM89.9079 134.417L116.124 121.309L110.694 110.45L99.1766 106.61L89.9079 134.417ZM87.0355 132.16L111.891 116.625L111.792 116.467L111.691 116.31L87.0355 132.16ZM83.1373 128.056L98.2172 102.923L89.7335 97.8328L79.9005 98.9253L83.1373 128.056ZM77.1873 126.005L98.7934 106.199L98.759 106.161L98.7245 106.124L77.1873 126.005ZM77.1873 112.668L52.7998 96.41V96.41L77.1873 112.668ZM85.5993 106.924L76.8256 78.9574L76.4332 79.0805L76.0445 79.2145L85.5993 106.924ZM106.527 100.358L115.301 128.324L132.828 122.825L135.521 104.653L106.527 100.358ZM122.12 62.6066L147.015 78.0757L147.136 77.8821L147.253 77.6866L122.12 62.6066ZM128.685 51.7325L103.782 36.2754L103.706 36.3979L103.631 36.5212L128.685 51.7325ZM138.739 40.8584L156.682 64.0347L156.912 63.8566L157.138 63.6739L138.739 40.8584ZM151.87 33.0619L162.613 60.3324L162.822 60.25L163.029 60.1644L151.87 33.0619ZM165.821 29.574L163.318 0.370922L163.282 0.374054L163.245 0.377281L165.821 29.574ZM178.952 29.7792L174.947 58.8145L175.044 58.8278L175.141 58.8405L178.952 29.7792ZM195.571 38.1912L221.02 23.6493L220.832 23.3221L220.637 22.9997L195.571 38.1912ZM199.88 53.7842L170.683 51.208L170.648 51.6092L170.623 52.0111L199.88 53.7842ZM194.34 64.0428L210.314 88.6178L210.569 88.4516L210.822 88.2802L194.34 64.0428ZM180.388 65.6842L196.238 41.0291L195.35 40.4583L194.424 39.9529L180.388 65.6842ZM173.207 59.529L165.155 31.3466L165.155 31.3466L173.207 59.529ZM166.642 63.4273L184.637 86.5633L185.027 86.2601L185.406 85.944L166.642 63.4273ZM159.051 70.8135L136.868 51.6557L136.613 51.9511L136.366 52.2531L159.051 70.8135ZM152.485 80.0462L176.943 96.1979L177.241 95.7472L177.522 95.2859L152.485 80.0462ZM148.177 95.2288L157.664 122.961C159.06 122.483 163.819 121.429 173.851 120.786L171.976 91.5358L170.101 62.2856C158.796 63.0103 147.688 64.418 138.689 67.4966L148.177 95.2288ZM171.976 91.5358L157.742 117.157C152.275 114.12 148.537 109.213 146.803 104.136C145.335 99.8347 145.715 96.6981 145.78 96.1969L174.849 99.9478L203.918 103.699C205.081 94.6882 204.286 75.9561 186.211 65.914L171.976 91.5358ZM174.849 99.9478L145.675 97.1245C145.745 96.3976 146.014 94.7414 147.034 92.6553C148.107 90.4633 149.736 88.3707 151.82 86.7034L170.13 109.591L188.44 132.478C198.655 124.306 203.026 113.07 204.023 102.771L174.849 99.9478ZM170.13 109.591L145.742 93.3325C145.029 94.4024 144.661 94.7427 144.745 94.6615C144.845 94.5655 145.553 93.9087 146.951 93.2357L159.666 119.644L172.381 146.053C182.451 141.204 189.539 133.316 194.517 125.849L170.13 109.591ZM159.666 119.644L147.271 93.0838C147.273 93.0831 147.213 93.1111 147.082 93.1637C146.952 93.2162 146.765 93.2879 146.514 93.3761C146.005 93.555 145.298 93.779 144.363 94.034L152.075 122.311L159.787 150.589C163.849 149.481 168.056 148.073 172.061 146.205L159.666 119.644ZM152.075 122.311L145.286 93.7983C141.784 94.6322 137.732 95.73 133.234 97.0359L141.406 125.184L149.578 153.332C153.56 152.176 156.621 151.358 158.864 150.825L152.075 122.311ZM141.406 125.184L113.803 115.326C110.65 124.154 107.323 135.489 103.809 148.983L132.173 156.37L160.537 163.756C163.862 150.989 166.69 141.533 169.009 135.042L141.406 125.184ZM132.173 156.37L103.738 149.261C100.424 162.52 98.2949 170.454 97.2214 173.889L125.197 182.632L153.173 191.374C154.836 186.055 157.357 176.482 160.608 163.479L132.173 156.37ZM125.197 182.632L97.208 173.932C95.7291 178.691 94.7321 181.397 94.2049 182.627C93.899 183.341 94.1191 182.685 94.916 181.437C95.3098 180.821 96.3241 179.294 98.0366 177.545C98.9292 176.633 100.269 175.395 102.083 174.147C103.884 172.908 106.535 171.397 110.005 170.356L118.427 198.43L126.849 226.504C133.779 224.425 138.108 220.409 139.926 218.552C142.036 216.397 143.476 214.313 144.323 212.986C146.026 210.319 147.263 207.638 148.086 205.719C149.815 201.682 151.52 196.695 153.187 191.331L125.197 182.632ZM118.427 198.43L93.7271 182.65C93.2673 183.369 93.3082 183.116 94.0591 182.453C94.8742 181.734 96.5084 180.557 98.9938 179.759L107.963 207.663L116.932 235.567C129.637 231.483 137.927 222.349 143.126 214.21L118.427 198.43ZM107.963 207.663L98.6943 179.857C99.4291 179.612 100.786 179.276 102.629 179.276C104.528 179.276 106.512 179.635 108.385 180.368L97.7044 207.663L87.0238 234.958C97.5114 239.061 108.08 238.519 117.232 235.469L107.963 207.663ZM97.7044 207.663L107.333 179.979C108.959 180.545 110.678 181.466 112.262 182.786C113.83 184.093 114.89 185.476 115.552 186.597L90.3183 201.508L65.0844 216.418C70.2006 225.077 78.0381 231.855 88.0754 235.346L97.7044 207.663ZM90.3183 201.508L115.767 186.966C116.795 188.765 117.661 191.1 117.962 193.808C118.26 196.495 117.921 198.8 117.43 200.482L89.2924 192.275L61.1546 184.068C58.0548 194.696 59.1367 206.016 64.8699 216.049L90.3183 201.508ZM89.2924 192.275L118.394 188.783C118.531 189.924 118.464 190.261 118.484 189.019C118.499 188.032 118.56 186.53 118.696 184.41C118.968 180.177 119.488 174.284 120.291 166.593L91.139 163.551L61.987 160.509C61.1482 168.548 60.5399 175.307 60.1965 180.649C59.9086 185.128 59.6169 190.983 60.191 195.767L89.2924 192.275ZM91.139 163.551L120.291 166.593C121.822 151.917 122.911 140.76 122.911 136.468H93.601H64.2908C64.2908 135.876 64.3167 135.925 64.2132 137.356C64.129 138.521 63.9928 140.161 63.7957 142.329C63.4026 146.653 62.8026 152.694 61.987 160.509L91.139 163.551ZM93.601 136.468L114.326 115.743C109.128 110.545 102.735 107.592 96.3679 106.531L91.5493 135.442L86.7306 164.354C82.0047 163.566 76.9793 161.297 72.8756 157.194L93.601 136.468ZM91.5493 135.442L96.3678 106.531C101.19 107.335 110.8 110.661 116.124 121.309L89.9079 134.417L63.6921 147.524C69.563 159.266 80.2669 163.276 86.7308 164.354L91.5493 135.442ZM89.9079 134.417L99.1766 106.61C104.37 108.342 108.941 111.906 111.891 116.625L87.0355 132.16L62.1805 147.694C66.4977 154.601 72.984 159.671 80.6393 162.223L89.9079 134.417ZM87.0355 132.16L111.691 116.31C108.994 112.115 104.737 106.835 98.2172 102.923L83.1373 128.056L68.0573 153.19C64.273 150.919 62.6153 148.375 62.3804 148.009L87.0355 132.16ZM83.1373 128.056L79.9005 98.9253C82.2126 98.6684 85.5668 98.7321 89.3581 100.039C93.2621 101.386 96.4577 103.651 98.7934 106.199L77.1873 126.005L55.5812 145.81C64.1842 155.195 75.8264 158.359 86.374 157.187L83.1373 128.056ZM77.1873 126.005L98.7245 106.124C100.098 107.612 101.516 109.651 102.555 112.247C103.601 114.862 104.035 117.481 104.035 119.849H74.7253H45.4151C45.4151 129.867 49.2351 138.935 55.6501 145.885L77.1873 126.005ZM74.7253 119.849H104.035C104.035 124.704 102.272 127.881 101.575 128.927L77.1873 112.668L52.7998 96.41C48.8198 102.38 45.4151 110.345 45.4151 119.849H74.7253ZM77.1873 112.668L101.575 128.927C98.4412 133.627 94.7855 134.76 95.1542 134.633L85.5993 106.924L76.0445 79.2145C68.4799 81.823 59.2161 86.7855 52.7998 96.41L77.1873 112.668ZM85.5993 106.924L94.373 134.89L115.301 128.324L106.527 100.358L97.7531 72.3919L76.8256 78.9574L85.5993 106.924ZM106.527 100.358L135.521 104.653C136.362 98.9719 139.449 90.2524 147.015 78.0757L122.12 62.6066L97.2242 47.1375C87.2823 63.1376 79.9741 79.5859 77.5331 96.0627L106.527 100.358ZM122.12 62.6066L147.253 77.6866C149.275 74.3159 151.437 70.7352 153.739 66.9439L128.685 51.7325L103.631 36.5212C101.283 40.3895 99.0675 44.0583 96.9865 47.5266L122.12 62.6066ZM128.685 51.7325L153.588 67.1896C153.957 66.596 154.798 65.493 156.682 64.0347L138.739 40.8584L120.796 17.6822C114.199 22.7894 108.338 28.9358 103.782 36.2754L128.685 51.7325ZM138.739 40.8584L157.138 63.6739C159.347 61.8928 161.178 60.8976 162.613 60.3324L151.87 33.0619L141.127 5.7915C133.534 8.78263 126.611 12.985 120.339 18.043L138.739 40.8584ZM151.87 33.0619L163.029 60.1644C165.152 59.2903 166.917 58.9014 168.397 58.7708L165.821 29.574L163.245 0.377281C155.425 1.06731 147.888 3.00367 140.71 5.95945L151.87 33.0619ZM165.821 29.574L168.324 58.7771C171.359 58.517 173.515 58.6169 174.947 58.8145L178.952 29.7792L182.957 0.743919C176.456 -0.152725 169.858 -0.189655 163.318 0.370922L165.821 29.574ZM178.952 29.7792L175.141 58.8405C177.117 59.0997 177.155 59.3737 176.128 58.8538C174.882 58.2233 172.447 56.5863 170.505 53.3827L195.571 38.1912L220.637 22.9997C211.112 7.28379 194.692 2.28221 182.764 0.71788L178.952 29.7792ZM195.571 38.1912L170.123 52.7331C170.815 53.9453 170.918 54.4193 170.859 54.2044C170.786 53.9423 170.536 52.8681 170.683 51.208L199.88 53.7842L229.076 56.3604C230.19 43.7424 226.076 32.499 221.02 23.6493L195.571 38.1912ZM199.88 53.7842L170.623 52.0111C170.702 50.705 171.092 48.4143 172.499 45.8075C173.951 43.1203 175.94 41.1102 177.859 39.8055L194.34 64.0428L210.822 88.2802C222.521 80.3244 228.372 68.1588 229.136 55.5573L199.88 53.7842ZM194.34 64.0428L178.366 39.4679C178.011 39.6989 179.768 38.4293 183.324 38.0109C187.537 37.5153 192.264 38.4743 196.238 41.0291L180.388 65.6842L164.539 90.3392C182.147 101.659 200.031 95.3015 210.314 88.6178L194.34 64.0428ZM180.388 65.6842L194.424 39.9529C200.379 43.2012 203.448 48.1946 204.708 51.7227L177.106 61.5807L149.503 71.4388C152.131 78.7968 157.389 86.5258 166.353 91.4155L180.388 65.6842ZM177.106 61.5807L204.708 51.7227C202.852 46.5253 198.562 38.5854 189.269 33.6945C179.859 28.7417 170.731 29.7535 165.155 31.3466L173.207 59.529L181.26 87.7115C177.599 88.7574 170.078 89.8377 161.967 85.5687C153.974 81.3617 150.675 74.7213 149.503 71.4388L177.106 61.5807ZM173.207 59.529L165.155 31.3466C157.643 33.4931 151.789 37.6517 147.878 40.9106L166.642 63.4273L185.406 85.944C185.734 85.6703 185.626 85.8006 185.094 86.1164C184.59 86.4157 183.287 87.1323 181.26 87.7115L173.207 59.529ZM166.642 63.4273L148.647 40.2912C144.313 43.6621 140.403 47.5627 136.868 51.6557L159.051 70.8135L181.233 89.9712C182.896 88.0458 184.047 87.0224 184.637 86.5633L166.642 63.4273ZM159.051 70.8135L136.366 52.2531C133.091 56.2554 130.107 60.4382 127.448 64.8064L152.485 80.0462L177.522 95.2859C178.693 93.3622 180.086 91.3898 181.735 89.3738L159.051 70.8135ZM152.485 80.0462L128.027 63.8944C124.906 68.6201 121.519 74.5863 119.621 81.2771C117.796 87.7063 116.032 99.8514 123.789 111.487L148.177 95.2288L172.564 78.9705C178.406 87.7338 176.403 95.9123 176.014 97.2807C175.552 98.9106 175.277 98.7216 176.943 96.1979L152.485 80.0462ZM193.426 99.1271L173.081 78.0283L170.498 80.5196L168.591 83.5607L193.426 99.1271ZM206.147 92.7668L209.572 121.876L209.932 121.834L210.292 121.782L206.147 92.7668ZM218.662 94.203L206.38 120.815L206.569 120.903L206.758 120.987L218.662 94.203ZM226.664 102.205L199.88 114.109L200.151 114.717L200.448 115.313L226.664 102.205ZM226.049 114.515L250.286 130.996L251.585 129.086L252.569 126.995L226.049 114.515ZM207.378 160.678L179.214 152.563L157.905 226.517L223.009 185.473L207.378 160.678ZM238.974 125.184L264.774 139.093L264.827 138.996L264.878 138.898L238.974 125.184ZM246.976 111.027L272.109 126.107L272.476 125.496L272.812 124.868L246.976 111.027ZM250.054 105.282L225.199 89.7479L224.68 90.5782L224.217 91.4413L250.054 105.282ZM256.209 95.434L281.064 110.968L283.037 107.811L284.159 104.26L256.209 95.434ZM260.517 90.5099L269.786 118.316L270.603 118.044L271.403 117.724L260.517 90.5099ZM274.469 89.484L272.843 118.749L273.656 118.794H274.469V89.484ZM281.24 87.4323L297.498 111.82L297.498 111.82L281.24 87.4323ZM288.421 85.9961L284.073 114.982L284.855 115.099L285.642 115.174L288.421 85.9961ZM296.012 88.6633L279.407 112.816L279.745 113.049L280.089 113.271L296.012 88.6633ZM301.141 94.203L274.926 107.311L275.429 108.318L276.008 109.283L301.141 94.203ZM301.552 100.358L274.991 87.9632L274.991 87.9633L301.552 100.358ZM277.957 169.09L305.96 177.746L306.004 177.603L306.047 177.46L277.957 169.09ZM271.392 187.966L294.207 206.366L296.927 202.993L298.554 198.978L271.392 187.966ZM258.466 196.583L266.616 224.738H266.616L258.466 196.583ZM243.693 197.814L247.958 168.816L247.59 168.762L247.22 168.717L243.693 197.814ZM232.819 193.096L253.007 171.846L252.72 171.574L252.427 171.309L232.819 193.096ZM230.973 183.658L258.253 194.375L299.469 89.4619L212.368 161.009L230.973 183.658ZM219.073 192.275L234.755 217.037V217.037L219.073 192.275ZM204.095 197.404L200.045 168.375L199.998 168.382L199.95 168.389L204.095 197.404ZM187.476 196.583L194.756 168.192L194.413 168.104L194.067 168.024L187.476 196.583ZM173.73 189.197L153.005 209.923L153.193 210.111L153.385 210.296L173.73 189.197ZM167.78 174.425L138.491 175.537L138.495 175.632L138.499 175.726L167.78 174.425ZM193.426 99.1271L213.772 120.226C213.806 120.193 213.427 120.563 212.587 120.983C211.71 121.422 210.66 121.748 209.572 121.876L206.147 92.7668L202.722 63.6573C190.856 65.0534 180.866 70.5217 173.081 78.0283L193.426 99.1271ZM206.147 92.7668L210.292 121.782C210.571 121.742 210.271 121.818 209.525 121.732C208.739 121.642 207.627 121.391 206.38 120.815L218.662 94.203L230.945 67.5905C221.172 63.08 211.066 62.4563 202.002 63.7512L206.147 92.7668ZM218.662 94.203L206.758 120.987C205.554 120.452 204.094 119.547 202.707 118.16C201.32 116.773 200.415 115.313 199.88 114.109L226.664 102.205L253.448 90.3006C248.86 79.9767 240.89 72.0074 230.566 67.419L218.662 94.203ZM226.664 102.205L200.448 115.313C199.004 112.423 198.43 109.298 198.57 106.486C198.7 103.894 199.39 102.329 199.528 102.035L226.049 114.515L252.569 126.995C257.365 116.804 259.799 102.934 252.88 89.0968L226.664 102.205ZM226.049 114.515L201.811 98.0335C195.681 107.049 190.829 116.769 187.26 127.119L214.969 136.673L242.678 146.228C244.581 140.711 247.116 135.659 250.286 130.996L226.049 114.515ZM214.969 136.673L187.26 127.119C184.361 135.528 181.678 144.01 179.214 152.563L207.378 160.678L235.542 168.794C237.728 161.207 240.107 153.685 242.678 146.228L214.969 136.673ZM207.378 160.678L223.009 185.473C240.647 174.353 254.38 158.373 264.774 139.093L238.974 125.184L213.175 111.275C206.608 123.454 199.277 131.137 191.747 135.884L207.378 160.678ZM238.974 125.184L264.878 138.898C267.082 134.736 269.49 130.473 272.109 126.107L246.976 111.027L221.843 95.947C218.718 101.156 215.791 106.33 213.07 111.47L238.974 125.184ZM246.976 111.027L272.812 124.868L275.89 119.123L250.054 105.282L224.217 91.4413L221.14 97.1861L246.976 111.027ZM250.054 105.282L274.909 120.817L281.064 110.968L256.209 95.434L231.354 79.8996L225.199 89.7479L250.054 105.282ZM256.209 95.434L284.159 104.26C283.644 105.888 282.485 108.669 279.96 111.555C277.277 114.621 273.748 116.995 269.786 118.316L260.517 90.5099L251.249 62.7038C237.991 67.1231 231.089 77.6476 228.259 86.6078L256.209 95.434ZM260.517 90.5099L271.403 117.724C269.814 118.359 268.289 118.589 267.083 118.589V89.2789V59.9687C261.227 59.9687 255.325 61.019 249.632 63.2961L260.517 90.5099ZM267.083 89.2789V118.589C269.002 118.589 270.922 118.642 272.843 118.749L274.469 89.484L276.095 60.219C273.092 60.0522 270.088 59.9687 267.083 59.9687V89.2789ZM274.469 89.484V118.794C282.727 118.794 290.64 116.392 297.498 111.82L281.24 87.4323L264.981 63.0448C267.736 61.2081 271.135 60.1739 274.469 60.1739V89.484ZM281.24 87.4323L297.498 111.82C295.372 113.237 292.918 114.269 290.322 114.788C287.781 115.297 285.617 115.214 284.073 114.982L288.421 85.9961L292.769 57.0102C283.776 55.6613 273.842 57.1375 264.981 63.0448L281.24 87.4323ZM288.421 85.9961L285.642 115.174C283.994 115.017 281.675 114.375 279.407 112.816L296.012 88.6633L312.617 64.5105C305.972 59.9421 298.592 57.522 291.2 56.818L288.421 85.9961ZM296.012 88.6633L280.089 113.271C278.61 112.314 276.47 110.399 274.926 107.311L301.141 94.203L327.357 81.095C323.624 73.6296 318.065 68.0219 311.935 64.0554L296.012 88.6633ZM301.141 94.203L276.008 109.283C274.622 106.973 273.21 103.55 272.922 99.2302C272.629 94.8388 273.596 90.953 274.991 87.9632L301.552 100.358L328.112 112.753C333.459 101.295 332.178 88.9625 326.275 79.123L301.141 94.203ZM301.552 100.358L274.991 87.9633C268.22 102.474 259.82 127.318 249.867 160.721L277.957 169.09L306.047 177.46C316.064 143.841 323.394 122.863 328.112 112.753L301.552 100.358ZM277.957 169.09L249.954 160.435C247.778 167.476 245.864 172.921 244.229 176.954L271.392 187.966L298.554 198.978C301.023 192.889 303.486 185.751 305.96 177.746L277.957 169.09ZM271.392 187.966L248.576 169.567C248.638 169.49 248.888 169.212 249.337 168.913C249.787 168.613 250.165 168.473 250.316 168.429L258.466 196.583L266.616 224.738C277.628 221.55 287.042 215.251 294.207 206.366L271.392 187.966ZM258.466 196.583L250.316 168.429C249.408 168.692 248.794 168.781 248.44 168.811C248.263 168.825 248.141 168.826 248.07 168.824C247.999 168.822 247.964 168.817 247.958 168.816L243.693 197.814L239.429 226.813C248.813 228.193 257.995 227.233 266.616 224.738L258.466 196.583ZM243.693 197.814L247.22 168.717C247.356 168.734 248.121 168.843 249.258 169.337C250.443 169.851 251.771 170.671 253.007 171.846L232.819 193.096L212.632 214.345C220.809 222.113 230.715 225.766 240.166 226.912L243.693 197.814ZM232.819 193.096L252.427 171.309C255.053 173.673 257.982 177.699 259.071 183.262C260.1 188.524 258.97 192.551 258.253 194.375L230.973 183.658L203.692 172.94C201.471 178.594 199.896 186.109 201.541 194.517C203.245 203.226 207.85 210.056 213.212 214.882L232.819 193.096ZM230.973 183.658L212.368 161.009C209.449 163.407 206.457 165.571 203.39 167.513L219.073 192.275L234.755 217.037C239.896 213.781 244.837 210.2 249.577 206.306L230.973 183.658ZM219.073 192.275L203.39 167.513C203.511 167.437 202.69 168.006 200.045 168.375L204.095 197.404L208.146 226.433C217.264 225.161 226.428 222.311 234.755 217.037L219.073 192.275ZM204.095 197.404L199.95 168.389C197.81 168.694 196.162 168.552 194.756 168.192L187.476 196.583L180.197 224.975C189.46 227.35 198.891 227.755 208.24 226.42L204.095 197.404ZM187.476 196.583L194.067 168.024C193.926 167.991 193.857 167.966 193.846 167.962C193.839 167.96 193.843 167.961 193.856 167.967C193.869 167.973 193.888 167.982 193.912 167.994C193.936 168.007 193.96 168.022 193.986 168.037C194.011 168.053 194.033 168.069 194.051 168.082C194.07 168.096 194.082 168.105 194.087 168.11C194.092 168.114 194.088 168.111 194.075 168.098L173.73 189.197L153.385 210.296C161.153 217.787 170.533 222.754 180.886 225.143L187.476 196.583ZM173.73 189.197L194.455 168.472C195.446 169.462 196.203 170.647 196.66 171.784C197.088 172.846 197.074 173.411 197.061 173.124L167.78 174.425L138.499 175.726C139.035 187.802 143.223 200.142 153.005 209.923L173.73 189.197ZM167.78 174.425L197.069 173.313C196.565 160.03 201.848 140.879 218.261 114.693L193.426 99.1271L168.591 83.5607C149.168 114.549 137.354 145.597 138.491 175.537L167.78 174.425ZM325.443 100.358L311.547 126.165L323.649 132.682L336.398 127.544L325.443 100.358ZM343.908 100.153L366.162 81.0781L366.013 80.9043L365.862 80.7328L343.908 100.153ZM346.37 109.18H317.06V188.181L368.588 128.298L346.37 109.18ZM372.837 94.4081L364.177 66.4066L364.101 66.43L364.026 66.4539L372.837 94.4081ZM405.665 90.9202L411.615 62.2203L411.602 62.2176L411.588 62.2148L405.665 90.9202ZM424.541 112.874L453.69 109.805L453.681 109.721L453.672 109.637L424.541 112.874ZM417.36 152.472L443.92 164.866L444.444 163.745L444.871 162.583L417.36 152.472ZM412.846 162.525L385.833 151.151L385.675 151.524L385.529 151.902L412.846 162.525ZM410.179 169.296L436.763 181.639L437.098 180.918L437.392 180.181L410.179 169.296ZM401.767 183.042L377.957 165.948L376.821 167.53L375.905 169.249L401.767 183.042ZM391.508 192.48L379.028 165.96L378.874 166.032L378.721 166.106L391.508 192.48ZM377.967 196.173L376.194 166.917L375.712 166.946L375.231 166.991L377.967 196.173ZM367.093 194.121L382.52 169.2L382.082 168.929L381.635 168.673L367.093 194.121ZM364.631 186.12L337.15 175.925L336.98 176.385L336.825 176.851L364.631 186.12ZM372.427 162.935L400.546 171.206V171.206L372.427 162.935ZM378.787 145.085L405.571 156.989L406.359 155.217L406.907 153.356L378.787 145.085ZM379.608 131.954L401.983 113.022L401.694 112.68L401.394 112.347L379.608 131.954ZM373.248 132.57L358.337 107.336L357.963 107.557L357.596 107.789L373.248 132.57ZM367.708 138.315L384.869 162.076L390.705 157.861L393.924 151.423L367.708 138.315ZM353.757 159.653L379.33 173.974L379.388 173.87L379.445 173.767L353.757 159.653ZM348.012 169.911L322.438 155.59L322.338 155.77L322.24 155.951L348.012 169.911ZM342.882 179.144L317.434 164.602L317.168 165.068L316.919 165.544L342.882 179.144ZM338.779 186.325L314.124 170.475L313.71 171.119L313.331 171.783L338.779 186.325ZM335.701 190.018L321.16 164.57L318.92 165.85L316.938 167.501L335.701 190.018ZM333.445 191.249L327.696 162.508L323.847 163.278L320.337 165.033L333.445 191.249ZM332.008 192.07L348.267 216.457L348.267 216.457L332.008 192.07ZM330.983 194.737L302.145 189.494L302.125 189.604L302.106 189.715L330.983 194.737ZM321.134 201.713L314.026 173.278L313.978 173.289L313.931 173.301L321.134 201.713ZM294.872 200.482L283.498 227.495V227.495L294.872 200.482ZM288.717 195.968L262.501 209.076L263.832 211.737L265.67 214.076L288.717 195.968ZM304.926 131.749L277.554 121.267L277.55 121.278L277.546 121.289L304.926 131.749ZM314.569 108.77L290.083 92.6608L289.814 93.0692L289.559 93.4863L314.569 108.77ZM321.134 99.9478L305.6 75.0928L304.834 75.5718L304.098 76.0971L321.134 99.9478ZM325.443 100.358L336.398 127.544C339.398 126.335 339.36 126.822 337.258 126.845C336.01 126.859 333.628 126.71 330.693 125.609C327.585 124.444 324.49 122.438 321.955 119.573L343.908 100.153L365.862 80.7328C357.081 70.8067 345.499 68.1298 336.607 68.2286C328.35 68.3204 320.653 70.6879 314.487 73.1724L325.443 100.358ZM343.908 100.153L321.654 119.228C317.344 114.199 317.06 109.232 317.06 108.155H346.37H375.681C375.681 100.238 373.756 89.937 366.162 81.0781L343.908 100.153ZM346.37 108.155H317.06V109.18H346.37H375.681V108.155H346.37ZM346.37 109.18L368.588 128.298C368.311 128.619 368.801 127.935 371.068 126.67C373.305 125.421 376.715 123.918 381.649 122.362L372.837 94.4081L364.026 66.4539C349.463 71.0444 334.472 78.0703 324.153 90.0632L346.37 109.18ZM372.837 94.4081L381.498 122.41C392.511 119.004 397.988 119.264 399.742 119.626L405.665 90.9202L411.588 62.2148C396.107 59.0203 379.7 61.6058 364.177 66.4066L372.837 94.4081ZM405.665 90.9202L399.715 119.62C400.063 119.692 399.731 119.669 399.013 119.274C398.247 118.852 397.36 118.179 396.571 117.262C394.911 115.33 395.194 114.165 395.41 116.11L424.541 112.874L453.672 109.637C452.52 99.2714 448.973 88.2924 441.02 79.0435C432.908 69.6078 422.332 64.4421 411.615 62.2203L405.665 90.9202ZM424.541 112.874L395.392 115.942C395.81 119.92 395.046 128.218 389.849 142.361L417.36 152.472L444.871 162.583C451.436 144.719 455.46 126.618 453.69 109.805L424.541 112.874ZM417.36 152.472L390.799 140.077C388.809 144.342 387.131 148.068 385.833 151.151L412.846 162.525L439.859 173.899C440.75 171.784 442.081 168.808 443.92 164.866L417.36 152.472ZM412.846 162.525L385.529 151.902C384.599 154.292 383.745 156.46 382.965 158.41L410.179 169.296L437.392 180.181C438.254 178.027 439.178 175.682 440.163 173.148L412.846 162.525ZM410.179 169.296L383.594 156.953C382.892 158.465 381.235 161.383 377.957 165.948L401.767 183.042L425.576 200.136C429.958 194.032 433.909 187.786 436.763 181.639L410.179 169.296ZM401.767 183.042L375.905 169.249C376.363 168.391 376.994 167.573 377.716 166.909C378.414 166.266 378.944 165.999 379.028 165.96L391.508 192.48L403.988 219C413.721 214.42 422.154 207.1 427.629 196.835L401.767 183.042ZM391.508 192.48L378.721 166.106C377.277 166.806 376.486 166.899 376.194 166.917L377.967 196.173L379.74 225.43C388.476 224.9 396.711 222.531 404.295 218.854L391.508 192.48ZM377.967 196.173L375.231 166.991C375.291 166.985 378.525 166.727 382.52 169.2L367.093 194.121L351.665 219.043C361.405 225.072 371.889 226.182 380.703 225.355L377.967 196.173ZM367.093 194.121L381.635 168.673C385.388 170.818 390.16 175.196 392.337 182.27C394.308 188.675 393.012 193.664 392.437 195.388L364.631 186.12L336.825 176.851C335.019 182.269 333.517 190.438 336.309 199.51C339.306 209.251 345.925 215.784 352.551 219.57L367.093 194.121ZM364.631 186.12L392.111 196.314C395.438 187.345 398.265 178.963 400.546 171.206L372.427 162.935L344.308 154.665C342.486 160.859 340.115 167.933 337.15 175.925L364.631 186.12ZM372.427 162.935L400.546 171.206C402.35 165.072 404.052 160.407 405.571 156.989L378.787 145.085L352.003 133.181C349.145 139.612 346.607 146.847 344.308 154.665L372.427 162.935ZM378.787 145.085L406.907 153.356C408.203 148.948 409.452 143.726 409.785 138.399C410.023 134.584 410.439 123.015 401.983 113.022L379.608 131.954L357.233 150.887C353.485 146.458 352.157 141.995 351.662 139.524C351.164 137.033 351.246 135.263 351.278 134.743C351.338 133.792 351.423 134.247 350.668 136.815L378.787 145.085ZM379.608 131.954L401.394 112.347C393.519 103.597 382.926 101.071 374.272 101.909C367.057 102.607 361.453 105.495 358.337 107.336L373.248 132.57L388.159 157.804C388.052 157.867 385.012 159.763 379.918 160.256C377.077 160.531 373.2 160.403 368.911 158.915C364.473 157.375 360.697 154.756 357.822 151.562L379.608 131.954ZM373.248 132.57L357.596 107.789C351.625 111.56 345.519 117.153 341.492 125.207L367.708 138.315L393.924 151.423C392.086 155.099 389.673 156.863 388.899 157.351L373.248 132.57ZM367.708 138.315L350.547 114.554C346.664 117.358 343.932 120.628 342.564 122.339C340.882 124.441 339.294 126.723 337.842 128.943C334.927 133.402 331.645 139.03 328.069 145.538L353.757 159.653L379.445 173.767C382.708 167.828 385.17 163.676 386.905 161.023C387.779 159.687 388.242 159.079 388.339 158.959C388.377 158.911 388.176 159.169 387.752 159.607C387.388 159.983 386.412 160.962 384.869 162.076L367.708 138.315ZM353.757 159.653L328.183 145.332C326.268 148.751 324.353 152.171 322.438 155.59L348.012 169.911L373.585 184.232C375.5 180.813 377.415 177.393 379.33 173.974L353.757 159.653ZM348.012 169.911L322.24 155.951C320.554 159.063 318.952 161.945 317.434 164.602L342.882 179.144L368.331 193.686C370.095 190.598 371.913 187.325 373.784 183.871L348.012 169.911ZM342.882 179.144L316.919 165.544C315.663 167.94 314.735 169.524 314.124 170.475L338.779 186.325L363.434 202.175C365.285 199.296 367.093 196.092 368.846 192.744L342.882 179.144ZM338.779 186.325L313.331 171.783C313.342 171.762 313.764 171.011 314.672 169.92C315.473 168.96 317.561 166.626 321.16 164.57L335.701 190.018L350.243 215.466C358.399 210.806 362.659 203.612 364.227 200.867L338.779 186.325ZM335.701 190.018L316.938 167.501C318.046 166.577 321.706 163.706 327.696 162.508L333.445 191.249L339.193 219.99C346.551 218.518 351.715 214.827 354.465 212.535L335.701 190.018ZM333.445 191.249L320.337 165.033C318.949 165.727 317.378 166.597 315.75 167.682L332.008 192.07L348.267 216.457C347.46 216.995 346.846 217.318 346.552 217.465L333.445 191.249ZM332.008 192.07L315.75 167.682C307.615 173.106 304.721 180.773 304.088 182.42C302.987 185.28 302.439 187.88 302.145 189.494L330.983 194.737L359.82 199.98C359.8 200.089 359.559 201.492 358.801 203.463C358.409 204.481 357.651 206.259 356.321 208.313C355.057 210.267 352.555 213.599 348.267 216.457L332.008 192.07ZM330.983 194.737L302.106 189.715C303.482 181.801 308.22 177.011 311.168 174.923C313.656 173.16 315.213 172.981 314.026 173.278L321.134 201.713L328.243 230.148C333.074 228.94 339.281 226.846 345.052 222.758C351.283 218.344 357.936 210.819 359.859 199.759L330.983 194.737ZM321.134 201.713L313.931 173.301C309.222 174.495 307.139 173.844 306.246 173.468L294.872 200.482L283.498 227.495C298.199 233.685 313.623 233.854 328.337 230.124L321.134 201.713ZM294.872 200.482L306.246 173.468C307.501 173.997 309.742 175.285 311.764 177.859L288.717 195.968L265.67 214.076C270.702 220.481 277.046 224.778 283.498 227.495L294.872 200.482ZM288.717 195.968L314.933 182.86C317.927 188.848 316.977 193.21 317.174 190.795C317.271 189.605 317.673 186.947 318.829 182.367C321.114 173.315 325.48 160.078 332.306 142.209L304.926 131.749L277.546 121.289C270.42 139.941 265.109 155.668 261.991 168.021C260.445 174.145 259.215 180.301 258.747 186.035C258.38 190.545 257.935 199.942 262.501 209.076L288.717 195.968ZM304.926 131.749L332.297 142.232C334.71 135.931 336.621 131.125 338.057 127.703C338.776 125.988 339.313 124.775 339.685 123.976C340.154 122.969 340.082 123.23 339.579 124.054L314.569 108.77L289.559 93.4863C287.468 96.9081 285.491 101.473 284.003 105.02C282.224 109.258 280.065 114.71 277.554 121.267L304.926 131.749ZM314.569 108.77L339.055 124.88C339.823 123.713 340.481 122.733 341.038 121.926C341.601 121.108 342.012 120.536 342.288 120.165C342.423 119.984 342.499 119.887 342.522 119.858C342.549 119.823 342.478 119.914 342.321 120.096C342.181 120.257 341.83 120.654 341.302 121.176C341.028 121.446 340.648 121.808 340.169 122.224C339.702 122.63 339.029 123.185 338.171 123.798L321.134 99.9478L304.098 76.0971C300.908 78.3757 298.732 80.8856 298.05 81.6718C296.996 82.8859 296.044 84.1158 295.261 85.1678C293.677 87.2961 291.922 89.8655 290.083 92.6608L314.569 108.77ZM321.134 99.9478L336.669 124.803C331.11 128.277 325.151 129.182 320.253 128.716C315.853 128.296 312.821 126.851 311.547 126.165L325.443 100.358L339.339 74.5513C333.897 71.6211 319.953 66.1223 305.6 75.0928L321.134 99.9478Z" fill="white" mask="url(#path-1-outside-1_139_1736)"/>
</svg>
