<svg width="217" height="67" viewBox="0 0 217 67" fill="none" xmlns="http://www.w3.org/2000/svg">
<path d="M5.82674 51.3737C4.42547 51.3737 3.42901 51.1713 2.83737 50.7665C2.24572 50.3305 1.88762 49.7856 1.76306 49.1316C1.6385 48.4466 1.57623 47.7459 1.57623 47.0297V22.9279C1.57623 22.2429 1.6385 21.5734 1.76306 20.9194C1.88762 20.2655 2.24572 19.7361 2.83737 19.3313C3.42901 18.8954 4.44104 18.6774 5.87345 18.6774H16.8033C18.7028 18.6774 20.3999 19.1445 21.8946 20.0787C23.3893 20.9817 24.5726 22.1962 25.4445 23.722C26.3164 25.2478 26.7523 26.8982 26.7523 28.6731C26.7523 29.2648 26.6901 29.872 26.5655 30.4948C26.4721 31.0864 26.3008 31.6781 26.0517 32.2697C25.8337 32.8302 25.5535 33.3752 25.211 33.9045C25.7403 34.5585 26.1918 35.2747 26.5655 36.0531C26.9392 36.8005 27.2194 37.579 27.4063 38.3886C27.5931 39.1671 27.6865 39.9611 27.6865 40.7707C27.6554 42.2654 27.3596 43.6667 26.7991 44.9745C26.2697 46.2513 25.5223 47.3723 24.557 48.3376C23.5917 49.2718 22.4863 50.0191 21.2407 50.5796C19.9951 51.109 18.6717 51.3737 17.2704 51.3737H5.82674ZM10.124 42.8259H16.8033C17.0213 42.8259 17.3171 42.7948 17.6908 42.7325C18.0645 42.6391 18.3914 42.4211 18.6717 42.0786C18.9831 41.7049 19.1388 41.0977 19.1388 40.2569C19.1388 39.821 19.0921 39.4629 18.9987 39.1826C18.9364 38.8712 18.8274 38.6377 18.6717 38.482C18.516 38.2952 18.3292 38.1706 18.1112 38.1083C17.9244 38.0149 17.6908 37.9526 17.4106 37.9215C17.1614 37.8904 16.8812 37.8748 16.5698 37.8748H15.9626C14.717 37.8748 13.8295 37.6101 13.3002 37.0807C12.7708 36.5514 12.5061 35.6172 12.5061 34.2782C12.5061 33.0015 12.7864 32.114 13.3469 31.6158C13.9385 31.0864 14.8883 30.8217 16.1961 30.8217H16.7566C17.0057 30.8217 17.2237 30.8062 17.4106 30.775C17.5974 30.7439 17.7375 30.666 17.8309 30.5415C17.9555 30.4169 18.0489 30.2457 18.1112 30.0277C18.1735 29.7786 18.2046 29.4516 18.2046 29.0468C18.2046 28.3306 18.0333 27.8479 17.6908 27.5988C17.3794 27.3497 16.7411 27.2251 15.7757 27.2251H10.124V42.8259ZM49.0033 51.327C47.6021 51.327 46.5589 51.0934 45.8738 50.6263C45.2199 50.1592 44.9085 49.6299 44.9396 49.0382H45.5936C45.4379 49.2562 45.1265 49.552 44.6594 49.9257C44.2234 50.2682 43.6318 50.5952 42.8844 50.9066C42.1371 51.1868 41.2185 51.327 40.1286 51.327C38.7274 51.327 37.3728 51.0156 36.0649 50.3928C34.7882 49.7389 33.6361 48.8514 32.6085 47.7304C31.612 46.6094 30.818 45.3482 30.2263 43.9469C29.6347 42.5145 29.3389 41.0199 29.3389 39.4629C29.3389 37.9371 29.6347 36.4735 30.2263 35.0722C30.818 33.671 31.6276 32.4254 32.6552 31.3355C33.6828 30.2145 34.8349 29.3426 36.1117 28.7198C37.3884 28.0659 38.7274 27.7389 40.1286 27.7389C41.1874 27.7389 42.0748 27.8946 42.791 28.206C43.5384 28.5174 44.13 28.86 44.566 29.2336C45.0331 29.6073 45.3445 29.9187 45.5001 30.1678H44.9864C44.9552 29.3893 45.2666 28.7821 45.9205 28.3462C46.6056 27.9102 47.6488 27.6922 49.05 27.6922C50.4513 27.6922 51.4322 27.9102 51.9927 28.3462C52.5843 28.751 52.9424 29.2803 53.067 29.9343C53.1916 30.5882 53.2538 31.2577 53.2538 31.9428V47.1232C53.2538 47.8082 53.1916 48.4777 53.067 49.1316C52.9424 49.7856 52.5843 50.3149 51.9927 50.7197C51.4322 51.1246 50.4357 51.327 49.0033 51.327ZM41.2963 42.8726C41.888 42.8726 42.4174 42.7169 42.8844 42.4056C43.3827 42.0942 43.7719 41.6894 44.0522 41.1911C44.3636 40.6618 44.5193 40.1012 44.5193 39.5096C44.5193 38.8868 44.3636 38.3263 44.0522 37.8281C43.7719 37.3298 43.3827 36.925 42.8844 36.6136C42.3862 36.3023 41.8257 36.1466 41.2029 36.1466C40.5801 36.1466 40.0041 36.3023 39.4747 36.6136C38.9765 36.925 38.5717 37.3454 38.2603 37.8748C37.9489 38.373 37.7932 38.9335 37.7932 39.5563C37.7932 40.148 37.9489 40.6929 38.2603 41.1911C38.6028 41.6894 39.0387 42.0942 39.5681 42.4056C40.0975 42.7169 40.6736 42.8726 41.2963 42.8726ZM67.0162 61.276C65.9263 61.276 64.8053 61.1203 63.6531 60.8089C62.5321 60.5286 61.489 60.1394 60.5236 59.6412C59.5583 59.1429 58.7798 58.598 58.1882 58.0063C57.5965 57.4458 57.3007 56.8853 57.3007 56.3248C57.3007 55.702 57.4097 55.126 57.6277 54.5966C57.8768 54.0672 58.2349 53.5534 58.702 53.0552C59.2002 52.5258 59.6362 52.1054 60.0098 51.7941C60.3835 51.4827 60.835 51.327 61.3644 51.327C61.8315 51.327 62.2363 51.436 62.5788 51.6539C62.9525 51.8719 63.3262 52.1054 63.6998 52.3546C64.0735 52.6348 64.525 52.8839 65.0544 53.1019C65.6149 53.3199 66.3155 53.4289 67.1563 53.4289C67.6234 53.4289 68.0594 53.3199 68.4642 53.1019C68.869 52.9151 69.2115 52.6348 69.4918 52.2611C69.8032 51.9186 70.0523 51.4982 70.2391 51C70.4259 50.5329 70.5194 50.0191 70.5194 49.4586V30.2145C70.6439 29.2803 71.0332 28.6108 71.6871 28.206C72.341 27.8012 73.3375 27.5988 74.6765 27.5988C76.0466 27.5988 77.0119 27.8012 77.5724 28.206C78.1329 28.6108 78.4599 29.1402 78.5533 29.7941C78.6779 30.4169 78.7401 31.0709 78.7401 31.7559V49.7389C78.7401 51.5761 78.382 53.2109 77.6658 54.6433C76.9808 56.0757 76.0621 57.2746 74.91 58.2399C73.7578 59.2363 72.4967 59.9837 71.1266 60.4819C69.7564 61.0113 68.3863 61.276 67.0162 61.276ZM65.8485 50.7197C64.4783 50.7197 63.1549 50.4084 61.8782 49.7856C60.6326 49.1628 59.5116 48.3065 58.5152 47.2166C57.5187 46.1267 56.7246 44.8967 56.133 43.5266C55.5725 42.1253 55.2922 40.6618 55.2922 39.1359C55.2922 37.6724 55.5725 36.2555 56.133 34.8854C56.7246 33.5153 57.5187 32.3009 58.5152 31.2421C59.5428 30.1522 60.6793 29.2959 61.9249 28.6731C63.2016 28.0192 64.5095 27.6922 65.8485 27.6922C67.2186 27.6922 68.3396 27.9725 69.2115 28.533C70.1145 29.0935 70.8152 29.8876 71.3134 30.9152C71.8428 31.9428 72.2164 33.1728 72.4344 34.6052C72.6524 36.0064 72.7614 37.5634 72.7614 39.2761C72.7614 41.6426 72.559 43.6823 72.1542 45.3949C71.7805 47.1076 71.0954 48.431 70.099 49.3652C69.1025 50.2682 67.6857 50.7197 65.8485 50.7197ZM66.9695 42.499C67.5611 42.499 68.0905 42.3433 68.5576 42.0319C69.0558 41.7205 69.445 41.3157 69.7253 40.8175C70.0367 40.3192 70.1924 39.7899 70.1924 39.2293C70.1924 38.6066 70.0367 38.0461 69.7253 37.5478C69.445 37.0496 69.0558 36.6604 68.5576 36.3801C68.0593 36.0687 67.4988 35.913 66.8761 35.913C66.2844 35.913 65.7395 36.0687 65.2412 36.3801C64.743 36.6915 64.3382 37.0963 64.0268 37.5945C63.7466 38.0928 63.6064 38.6377 63.6064 39.2293C63.6064 39.7899 63.7621 40.3192 64.0735 40.8175C64.3849 41.3157 64.7897 41.7205 65.288 42.0319C65.8173 42.3433 66.3778 42.499 66.9695 42.499ZM100.502 51.327C99.1005 51.327 98.0573 51.0934 97.3723 50.6263C96.7183 50.1592 96.4069 49.6299 96.4381 49.0382H97.092C96.9363 49.2562 96.6249 49.552 96.1578 49.9257C95.7219 50.2682 95.1302 50.5952 94.3829 50.9066C93.6355 51.1868 92.7169 51.327 91.6271 51.327C90.2258 51.327 88.8712 51.0156 87.5634 50.3928C86.2867 49.7389 85.1345 48.8514 84.1069 47.7304C83.1105 46.6094 82.3164 45.3482 81.7248 43.9469C81.1331 42.5145 80.8373 41.0199 80.8373 39.4629C80.8373 37.9371 81.1331 36.4735 81.7248 35.0722C82.3164 33.671 83.126 32.4254 84.1536 31.3355C85.1812 30.2145 86.3334 29.3426 87.6101 28.7198C88.8868 28.0659 90.2258 27.7389 91.6271 27.7389C92.6858 27.7389 93.5733 27.8946 94.2895 28.206C95.0368 28.5174 95.6285 28.86 96.0644 29.2336C96.5315 29.6073 96.8429 29.9187 96.9986 30.1678H96.4848C96.4536 29.3893 96.765 28.7821 97.419 28.3462C98.104 27.9102 99.1472 27.6922 100.548 27.6922C101.95 27.6922 102.931 27.9102 103.491 28.3462C104.083 28.751 104.441 29.2803 104.565 29.9343C104.69 30.5882 104.752 31.2577 104.752 31.9428V47.1232C104.752 47.8082 104.69 48.4777 104.565 49.1316C104.441 49.7856 104.083 50.3149 103.491 50.7197C102.931 51.1246 101.934 51.327 100.502 51.327ZM92.7948 42.8726C93.3864 42.8726 93.9158 42.7169 94.3829 42.4056C94.8811 42.0942 95.2704 41.6894 95.5506 41.1911C95.862 40.6618 96.0177 40.1012 96.0177 39.5096C96.0177 38.8868 95.862 38.3263 95.5506 37.8281C95.2704 37.3298 94.8811 36.925 94.3829 36.6136C93.8847 36.3023 93.3241 36.1466 92.7014 36.1466C92.0786 36.1466 91.5025 36.3023 90.9731 36.6136C90.4749 36.925 90.0701 37.3454 89.7587 37.8748C89.4473 38.373 89.2916 38.9335 89.2916 39.5563C89.2916 40.148 89.4473 40.6929 89.7587 41.1911C90.1012 41.6894 90.5372 42.0942 91.0666 42.4056C91.5959 42.7169 92.172 42.8726 92.7948 42.8726ZM117.627 51.327C116.226 51.327 114.871 51.0156 113.563 50.3928C112.287 49.7389 111.135 48.867 110.107 47.7771C109.111 46.6561 108.317 45.3794 107.725 43.9469C107.133 42.5145 106.837 41.0199 106.837 39.4629C106.837 37.9682 107.133 36.5202 107.725 35.119C108.317 33.7177 109.126 32.4721 110.154 31.3822C111.181 30.2612 112.333 29.3738 113.61 28.7198C114.918 28.0659 116.257 27.7389 117.627 27.7389C119.122 27.7389 120.414 28.0659 121.504 28.7198C122.594 29.3426 123.497 30.199 124.213 31.2888C124.929 32.3787 125.459 33.6243 125.801 35.0255C126.175 36.4268 126.377 37.8748 126.408 39.3695C126.44 40.8953 126.284 42.3744 125.941 43.8068C125.599 45.2081 125.069 46.4848 124.353 47.637C123.637 48.758 122.718 49.661 121.597 50.3461C120.508 51 119.184 51.327 117.627 51.327ZM118.748 42.9194C119.34 42.9194 119.885 42.7637 120.383 42.4523C120.881 42.1409 121.286 41.7361 121.597 41.2378C121.909 40.7085 122.064 40.148 122.064 39.5563C122.064 38.9335 121.909 38.373 121.597 37.8748C121.317 37.3766 120.928 36.9717 120.43 36.6604C119.931 36.349 119.355 36.1933 118.701 36.1933C118.079 36.1933 117.503 36.349 116.973 36.6604C116.475 36.9406 116.07 37.3454 115.759 37.8748C115.479 38.373 115.338 38.9335 115.338 39.5563C115.338 40.148 115.494 40.7085 115.806 41.2378C116.117 41.7361 116.537 42.1409 117.067 42.4523C117.596 42.7637 118.157 42.9194 118.748 42.9194ZM126.408 51.3737C125.163 51.3737 124.229 51.1868 123.606 50.8132C122.983 50.4395 122.563 49.8478 122.345 49.0382V21.2464C122.345 20.5613 122.376 19.8918 122.438 19.2379C122.532 18.584 122.859 18.0546 123.419 17.6498C123.98 17.2139 124.96 16.9959 126.362 16.9959C127.794 16.9959 128.791 17.1983 129.351 17.6031C129.943 18.0079 130.301 18.5373 130.425 19.1912C130.55 19.814 130.612 20.4835 130.612 21.1997V47.1232C130.612 47.8082 130.55 48.4777 130.425 49.1316C130.301 49.7856 129.943 50.3305 129.351 50.7665C128.791 51.1713 127.81 51.3737 126.408 51.3737Z" fill="#040321"/>
<mask id="path-2-outside-1_139_16" maskUnits="userSpaceOnUse" x="121" y="10" width="96" height="52" fill="black">
<rect fill="white" x="121" y="10" width="96" height="52"/>
<path d="M136.216 51.6323C135.872 52.3196 135.357 52.921 134.67 53.4364C134.011 53.9805 133.338 54.3528 132.651 54.5533C131.992 54.7824 131.548 54.8969 131.319 54.8969C131.09 54.8969 130.503 54.8253 129.558 54.6821H129.515C129.486 54.6821 129.443 54.6535 129.386 54.5962C127.897 53.9089 127.153 52.9782 127.153 51.8041C127.153 50.7732 127.682 49.7423 128.742 48.7113C130.174 47.3368 131.72 46.7068 133.381 46.8213C133.582 46.8499 134.054 46.9645 134.799 47.1649C134.884 47.2509 134.942 47.2938 134.97 47.2938C136.603 48.5538 137.018 50 136.216 51.6323ZM152.039 30.3264C153.127 29.9542 154.788 29.6964 157.022 29.5532C157.537 29.8396 157.738 30.4267 157.623 31.3144C157.537 32.2022 157.208 32.8751 156.635 33.3333C155.948 34.3642 155.217 35.0659 154.444 35.4381C154.015 35.6386 153.485 35.8247 152.855 35.9966C152.254 36.1397 151.509 36.3402 150.621 36.5979C150.049 38.2016 149.404 40.378 148.688 43.1271C148.001 45.8763 147.514 47.709 147.228 48.6254C146.569 50.7446 146.097 51.8471 145.81 51.933C145.152 52.9639 144.421 53.6083 143.62 53.866C142.846 54.1237 142.13 54.1237 141.472 53.866C140.813 53.6369 140.298 53.2073 139.925 52.5773C139.582 51.9759 139.51 51.3316 139.711 50.6443C139.625 49.9284 139.754 47.9238 140.097 44.6306C140.441 41.3373 140.613 39.4473 140.613 38.9605C140.498 38.8459 140.355 38.7743 140.183 38.7457C140.011 38.7171 139.897 38.6455 139.839 38.5309C139.582 38.445 139.381 38.2875 139.238 38.0584C138.98 37.6575 138.708 37.3711 138.422 37.1993C137.906 37.2566 137.491 37.1134 137.176 36.7697C136.833 36.3975 136.661 35.9679 136.661 35.4811C136.661 34.9943 136.833 34.4931 137.176 33.9776C137.52 33.4622 138.107 33.0613 138.937 32.7749L143.319 31.4003C143.662 29.0807 144.751 26.4461 146.583 23.4965C147.013 22.7806 147.471 22.0217 147.958 21.2199C148.473 20.3894 149.175 19.6306 150.063 18.9433C150.951 18.2274 151.867 17.6832 152.812 17.311C153.786 16.9101 154.759 16.6666 155.733 16.5807C156.735 16.4948 157.652 16.5091 158.482 16.6237C160.229 16.8528 161.389 17.4398 161.961 18.3849C162.649 19.5876 162.949 20.6758 162.864 21.6495C162.806 22.5945 162.42 23.3104 161.704 23.7972C160.558 24.5418 159.585 24.6563 158.783 24.1409C158.468 23.969 158.239 23.6827 158.095 23.2818C157.952 22.8808 157.68 22.7377 157.279 22.8522C156.878 22.9668 156.42 23.2388 155.905 23.6684C155.389 24.0693 154.86 24.5847 154.315 25.2148C153.8 25.8448 153.342 26.4891 152.941 27.1477C151.939 28.6655 151.638 29.7251 152.039 30.3264ZM161.512 31.1426C162.314 30.3694 163.202 29.9255 164.176 29.811C165.178 29.6678 166.051 29.768 166.796 30.1117C167.569 30.4553 168.128 31.0137 168.471 31.7869C168.844 32.5315 168.801 33.3906 168.342 34.3642C167.369 35.7961 166.596 37.3425 166.023 39.0034C165.45 40.6644 164.92 42.3396 164.433 44.0292C167.068 42.3683 169.273 39.8912 171.049 36.5979C171.564 35.6243 172.122 34.6363 172.724 33.634L173.368 32.4313L174.657 30.3694C174.829 29.8253 175.129 29.4817 175.559 29.3385C175.988 29.1666 176.447 29.0807 176.933 29.0807C177.449 29.0807 177.964 29.0951 178.48 29.1237C178.995 29.1237 179.468 28.9805 179.897 28.6941C180.327 28.4078 180.828 28.3075 181.401 28.3935C182.002 28.4507 182.532 28.6369 182.99 28.9519C183.477 29.2669 183.835 29.6535 184.064 30.1117C184.322 30.5412 184.35 30.9708 184.15 31.4003C182.947 33.9776 181.301 38.7743 179.21 45.7904C178.723 47.3654 178.265 48.6827 177.835 49.7423C177.12 50.63 176.218 51.2314 175.129 51.5464C174.041 51.8614 173.01 51.9473 172.037 51.8041C171.091 51.6896 170.333 51.3603 169.76 50.8162C169.187 50.3007 169.058 49.642 169.373 48.8402C168.571 49.4989 167.741 50.1002 166.882 50.6443C166.023 51.1884 164.978 51.5464 163.746 51.7182C162.543 51.89 161.384 51.8328 160.267 51.5464C159.15 51.2887 158.191 50.7732 157.389 50C156.616 49.2268 156.2 48.1959 156.143 46.9072C155.971 42.3826 157.761 37.1277 161.512 31.1426ZM189.152 31.4003C191.071 30.6271 192.359 30.6128 193.018 31.3574C193.362 31.7583 193.533 32.3167 193.533 33.0326V33.2474C194.593 32.016 196.44 30.9851 199.075 30.1546C201.852 29.2955 204.143 29.0521 205.947 29.4244C208.296 29.9112 209.613 31.4433 209.899 34.0206C210.128 36.197 209.627 38.9605 208.396 42.311C207.995 43.1701 207.68 43.8717 207.451 44.4158C207.25 44.9313 207.064 45.4038 206.892 45.8333C206.52 46.6352 205.933 47.5945 205.131 48.7113C204.673 49.5704 203.957 50.2291 202.984 50.6873C202.038 51.1455 201.093 51.4032 200.148 51.4605C199.232 51.5464 198.473 51.4032 197.872 51.0309C197.27 50.6873 197.099 50.1289 197.356 49.3557C198.015 47.5802 198.559 45.9622 198.989 44.5017C199.418 43.0412 199.862 41.7955 200.32 40.7646C200.75 39.3041 200.807 38.3877 200.492 38.0155C200.234 37.7291 199.79 37.772 199.16 38.1443C198.616 38.488 198.23 38.8889 198.001 39.3471C197.485 39.7193 196.512 41.2085 195.08 43.8144C194.679 44.5304 194.278 45.2463 193.877 45.9622C193.505 46.6495 193.147 47.2938 192.803 47.8952C192.488 48.4966 192.202 48.9977 191.944 49.3986C191.715 49.7995 191.5 50.0573 191.3 50.1718C191.128 50.315 190.97 50.4009 190.827 50.4296C190.713 50.4868 190.612 50.5441 190.526 50.6014C190.441 50.6586 190.369 50.8448 190.312 51.1598C190.197 51.8184 189.51 52.3053 188.25 52.6203C186.217 53.1357 184.384 53.0498 182.752 52.3625C182.207 52.1334 181.778 51.8184 181.463 51.4175C180.804 50.1002 181.935 45.6186 184.856 37.9725C185.887 35.2806 186.56 33.677 186.875 33.1615C187.591 32.0733 188.049 31.4576 188.25 31.3144C188.479 31.1712 188.78 31.1999 189.152 31.4003Z"/>
</mask>
<path d="M136.216 51.6323C135.872 52.3196 135.357 52.921 134.67 53.4364C134.011 53.9805 133.338 54.3528 132.651 54.5533C131.992 54.7824 131.548 54.8969 131.319 54.8969C131.09 54.8969 130.503 54.8253 129.558 54.6821H129.515C129.486 54.6821 129.443 54.6535 129.386 54.5962C127.897 53.9089 127.153 52.9782 127.153 51.8041C127.153 50.7732 127.682 49.7423 128.742 48.7113C130.174 47.3368 131.72 46.7068 133.381 46.8213C133.582 46.8499 134.054 46.9645 134.799 47.1649C134.884 47.2509 134.942 47.2938 134.97 47.2938C136.603 48.5538 137.018 50 136.216 51.6323ZM152.039 30.3264C153.127 29.9542 154.788 29.6964 157.022 29.5532C157.537 29.8396 157.738 30.4267 157.623 31.3144C157.537 32.2022 157.208 32.8751 156.635 33.3333C155.948 34.3642 155.217 35.0659 154.444 35.4381C154.015 35.6386 153.485 35.8247 152.855 35.9966C152.254 36.1397 151.509 36.3402 150.621 36.5979C150.049 38.2016 149.404 40.378 148.688 43.1271C148.001 45.8763 147.514 47.709 147.228 48.6254C146.569 50.7446 146.097 51.8471 145.81 51.933C145.152 52.9639 144.421 53.6083 143.62 53.866C142.846 54.1237 142.13 54.1237 141.472 53.866C140.813 53.6369 140.298 53.2073 139.925 52.5773C139.582 51.9759 139.51 51.3316 139.711 50.6443C139.625 49.9284 139.754 47.9238 140.097 44.6306C140.441 41.3373 140.613 39.4473 140.613 38.9605C140.498 38.8459 140.355 38.7743 140.183 38.7457C140.011 38.7171 139.897 38.6455 139.839 38.5309C139.582 38.445 139.381 38.2875 139.238 38.0584C138.98 37.6575 138.708 37.3711 138.422 37.1993C137.906 37.2566 137.491 37.1134 137.176 36.7697C136.833 36.3975 136.661 35.9679 136.661 35.4811C136.661 34.9943 136.833 34.4931 137.176 33.9776C137.52 33.4622 138.107 33.0613 138.937 32.7749L143.319 31.4003C143.662 29.0807 144.751 26.4461 146.583 23.4965C147.013 22.7806 147.471 22.0217 147.958 21.2199C148.473 20.3894 149.175 19.6306 150.063 18.9433C150.951 18.2274 151.867 17.6832 152.812 17.311C153.786 16.9101 154.759 16.6666 155.733 16.5807C156.735 16.4948 157.652 16.5091 158.482 16.6237C160.229 16.8528 161.389 17.4398 161.961 18.3849C162.649 19.5876 162.949 20.6758 162.864 21.6495C162.806 22.5945 162.42 23.3104 161.704 23.7972C160.558 24.5418 159.585 24.6563 158.783 24.1409C158.468 23.969 158.239 23.6827 158.095 23.2818C157.952 22.8808 157.68 22.7377 157.279 22.8522C156.878 22.9668 156.42 23.2388 155.905 23.6684C155.389 24.0693 154.86 24.5847 154.315 25.2148C153.8 25.8448 153.342 26.4891 152.941 27.1477C151.939 28.6655 151.638 29.7251 152.039 30.3264ZM161.512 31.1426C162.314 30.3694 163.202 29.9255 164.176 29.811C165.178 29.6678 166.051 29.768 166.796 30.1117C167.569 30.4553 168.128 31.0137 168.471 31.7869C168.844 32.5315 168.801 33.3906 168.342 34.3642C167.369 35.7961 166.596 37.3425 166.023 39.0034C165.45 40.6644 164.92 42.3396 164.433 44.0292C167.068 42.3683 169.273 39.8912 171.049 36.5979C171.564 35.6243 172.122 34.6363 172.724 33.634L173.368 32.4313L174.657 30.3694C174.829 29.8253 175.129 29.4817 175.559 29.3385C175.988 29.1666 176.447 29.0807 176.933 29.0807C177.449 29.0807 177.964 29.0951 178.48 29.1237C178.995 29.1237 179.468 28.9805 179.897 28.6941C180.327 28.4078 180.828 28.3075 181.401 28.3935C182.002 28.4507 182.532 28.6369 182.99 28.9519C183.477 29.2669 183.835 29.6535 184.064 30.1117C184.322 30.5412 184.35 30.9708 184.15 31.4003C182.947 33.9776 181.301 38.7743 179.21 45.7904C178.723 47.3654 178.265 48.6827 177.835 49.7423C177.12 50.63 176.218 51.2314 175.129 51.5464C174.041 51.8614 173.01 51.9473 172.037 51.8041C171.091 51.6896 170.333 51.3603 169.76 50.8162C169.187 50.3007 169.058 49.642 169.373 48.8402C168.571 49.4989 167.741 50.1002 166.882 50.6443C166.023 51.1884 164.978 51.5464 163.746 51.7182C162.543 51.89 161.384 51.8328 160.267 51.5464C159.15 51.2887 158.191 50.7732 157.389 50C156.616 49.2268 156.2 48.1959 156.143 46.9072C155.971 42.3826 157.761 37.1277 161.512 31.1426ZM189.152 31.4003C191.071 30.6271 192.359 30.6128 193.018 31.3574C193.362 31.7583 193.533 32.3167 193.533 33.0326V33.2474C194.593 32.016 196.44 30.9851 199.075 30.1546C201.852 29.2955 204.143 29.0521 205.947 29.4244C208.296 29.9112 209.613 31.4433 209.899 34.0206C210.128 36.197 209.627 38.9605 208.396 42.311C207.995 43.1701 207.68 43.8717 207.451 44.4158C207.25 44.9313 207.064 45.4038 206.892 45.8333C206.52 46.6352 205.933 47.5945 205.131 48.7113C204.673 49.5704 203.957 50.2291 202.984 50.6873C202.038 51.1455 201.093 51.4032 200.148 51.4605C199.232 51.5464 198.473 51.4032 197.872 51.0309C197.27 50.6873 197.099 50.1289 197.356 49.3557C198.015 47.5802 198.559 45.9622 198.989 44.5017C199.418 43.0412 199.862 41.7955 200.32 40.7646C200.75 39.3041 200.807 38.3877 200.492 38.0155C200.234 37.7291 199.79 37.772 199.16 38.1443C198.616 38.488 198.23 38.8889 198.001 39.3471C197.485 39.7193 196.512 41.2085 195.08 43.8144C194.679 44.5304 194.278 45.2463 193.877 45.9622C193.505 46.6495 193.147 47.2938 192.803 47.8952C192.488 48.4966 192.202 48.9977 191.944 49.3986C191.715 49.7995 191.5 50.0573 191.3 50.1718C191.128 50.315 190.97 50.4009 190.827 50.4296C190.713 50.4868 190.612 50.5441 190.526 50.6014C190.441 50.6586 190.369 50.8448 190.312 51.1598C190.197 51.8184 189.51 52.3053 188.25 52.6203C186.217 53.1357 184.384 53.0498 182.752 52.3625C182.207 52.1334 181.778 51.8184 181.463 51.4175C180.804 50.1002 181.935 45.6186 184.856 37.9725C185.887 35.2806 186.56 33.677 186.875 33.1615C187.591 32.0733 188.049 31.4576 188.25 31.3144C188.479 31.1712 188.78 31.1999 189.152 31.4003Z" fill="#FF8400"/>
<path d="M136.216 51.6323L141.705 54.3766L141.714 54.3573L141.724 54.3379L136.216 51.6323ZM134.67 53.4364L130.988 48.5272L130.873 48.6137L130.762 48.7054L134.67 53.4364ZM132.651 54.5533L130.933 48.6622L130.783 48.706L130.635 48.7574L132.651 54.5533ZM129.558 54.6821L130.477 48.6149L130.02 48.5457H129.558V54.6821ZM129.386 54.5962L133.725 50.2571L132.951 49.4832L131.958 49.0245L129.386 54.5962ZM128.742 48.7113L124.492 44.2846L124.477 44.2988L124.463 44.3132L128.742 48.7113ZM133.381 46.8213L134.249 40.7465L134.027 40.7148L133.803 40.6994L133.381 46.8213ZM134.799 47.1649L139.138 42.8258L137.978 41.6659L136.394 41.2395L134.799 47.1649ZM134.97 47.2938L138.72 42.4362L137.063 41.1573H134.97V47.2938ZM136.216 51.6323L130.727 48.888C130.787 48.7692 130.854 48.6737 130.913 48.6052C130.97 48.5387 131.003 48.5157 130.988 48.5272L134.67 53.4364L138.352 58.3456C139.71 57.3268 140.887 56.0121 141.705 54.3766L136.216 51.6323ZM134.67 53.4364L130.762 48.7054C130.693 48.7623 130.671 48.7703 130.701 48.7541C130.732 48.7368 130.81 48.698 130.933 48.6622L132.651 54.5533L134.369 60.4443C135.997 59.9695 137.398 59.1422 138.578 58.1674L134.67 53.4364ZM132.651 54.5533L130.635 48.7574C130.392 48.8419 130.289 48.8695 130.291 48.8692C130.294 48.8684 130.37 48.8483 130.502 48.826C130.57 48.8143 130.671 48.7991 130.797 48.7863C130.92 48.7738 131.099 48.7604 131.319 48.7604V54.8969V61.0334C132.242 61.0334 133.029 60.8376 133.357 60.7528C133.802 60.6379 134.251 60.4937 134.667 60.3492L132.651 54.5533ZM131.319 54.8969V48.7604C131.44 48.7604 131.527 48.7648 131.561 48.7667C131.6 48.7689 131.62 48.7708 131.616 48.7705C131.606 48.7696 131.555 48.7647 131.45 48.7519C131.24 48.7262 130.922 48.6823 130.477 48.6149L129.558 54.6821L128.639 60.7494C129.399 60.8645 130.52 61.0334 131.319 61.0334V54.8969ZM129.558 54.6821V48.5457H129.515V54.6821V60.8186H129.558V54.6821ZM129.515 54.6821V48.5457C130.508 48.5457 131.29 48.7872 131.77 48.9792C132.262 49.1761 132.633 49.4002 132.865 49.5548C133.313 49.8535 133.61 50.1415 133.725 50.2571L129.386 54.5962L125.047 58.9354C125.22 59.1082 125.566 59.4391 126.057 59.7665C126.385 59.9846 127.656 60.8186 129.515 60.8186V54.6821ZM129.386 54.5962L131.958 49.0245C131.771 48.9382 132.099 49.0451 132.503 49.5493C132.987 50.1541 133.289 50.975 133.289 51.8041H127.153H121.016C121.016 56.3106 124.158 58.9418 126.815 60.1679L129.386 54.5962ZM127.153 51.8041H133.289C133.289 52.3799 133.133 52.8194 133.008 53.0625C132.898 53.2757 132.843 53.2827 133.021 53.1095L128.742 48.7113L124.463 44.3132C122.736 45.993 121.016 48.5091 121.016 51.8041H127.153ZM128.742 48.7113L132.992 53.1381C133.251 52.8888 133.358 52.8636 133.291 52.8909C133.258 52.9042 133.202 52.9222 133.131 52.9337C133.059 52.9453 132.998 52.9459 132.959 52.9432L133.381 46.8213L133.803 40.6994C130.084 40.4429 126.911 41.9623 124.492 44.2846L128.742 48.7113ZM133.381 46.8213L132.513 52.8961C132.428 52.884 132.368 52.873 132.343 52.8684C132.315 52.8632 132.301 52.8602 132.305 52.861C132.315 52.8632 132.357 52.8723 132.44 52.8924C132.606 52.9327 132.856 52.9968 133.203 53.0904L134.799 47.1649L136.394 41.2395C135.772 41.072 134.898 40.8392 134.249 40.7465L133.381 46.8213ZM134.799 47.1649L130.459 51.5041C130.587 51.6321 130.858 51.8964 131.224 52.1708C131.405 52.3062 131.742 52.5456 132.199 52.7744C132.557 52.9534 133.573 53.4303 134.97 53.4303V47.2938V41.1573C136.354 41.1573 137.351 41.6288 137.688 41.7971C138.124 42.0152 138.436 42.2384 138.588 42.3524C138.896 42.5839 139.096 42.7837 139.138 42.8258L134.799 47.1649ZM134.97 47.2938L131.221 52.1514C131.378 52.2729 130.873 51.9411 130.608 51.017C130.311 49.9836 130.585 49.1775 130.708 48.9267L136.216 51.6323L141.724 54.3379C142.649 52.4548 143.116 50.1095 142.404 47.6299C141.724 45.2596 140.195 43.5747 138.72 42.4362L134.97 47.2938ZM152.039 30.3264L146.933 33.7304L149.554 37.6621L154.025 36.1326L152.039 30.3264ZM157.022 29.5532L160.002 24.189L158.427 23.3141L156.629 23.4293L157.022 29.5532ZM157.623 31.3144L151.537 30.5291L151.524 30.626L151.515 30.7233L157.623 31.3144ZM156.635 33.3333L152.802 28.5415L152.058 29.1367L151.529 29.9294L156.635 33.3333ZM154.444 35.4381L157.039 40.9989L157.073 40.9832L157.106 40.9671L154.444 35.4381ZM152.855 35.9966L154.276 41.9662L154.373 41.9431L154.47 41.9168L152.855 35.9966ZM150.621 36.5979L148.91 30.7048L145.897 31.5795L144.842 34.534L150.621 36.5979ZM148.688 43.1271L142.75 41.5807L142.742 41.6097L142.735 41.6388L148.688 43.1271ZM147.228 48.6254L141.371 46.7951L141.368 46.8041L147.228 48.6254ZM145.81 51.933L144.047 46.0553L141.865 46.7098L140.639 48.6292L145.81 51.933ZM143.62 53.866L141.742 48.0239L141.71 48.034L141.679 48.0444L143.62 53.866ZM141.472 53.866L143.708 48.1514L143.599 48.1087L143.488 48.0701L141.472 53.866ZM139.925 52.5773L134.597 55.6219L134.62 55.6607L134.642 55.6991L139.925 52.5773ZM139.711 50.6443L145.602 52.3625L145.953 51.1585L145.803 49.9132L139.711 50.6443ZM140.097 44.6306L133.994 43.9937V43.9937L140.097 44.6306ZM140.613 38.9605H146.749V36.4187L144.952 34.6213L140.613 38.9605ZM140.183 38.7457L141.192 32.6927L141.192 32.6927L140.183 38.7457ZM139.839 38.5309L145.328 35.7866L144.191 33.5131L141.78 32.7093L139.839 38.5309ZM139.238 38.0584L144.442 34.8061L144.421 34.7729L144.4 34.7401L139.238 38.0584ZM138.422 37.1993L141.579 31.9373L139.803 30.8716L137.744 31.1004L138.422 37.1993ZM137.176 36.7697L141.7 32.6232L141.693 32.6153L141.685 32.6075L137.176 36.7697ZM137.176 33.9776L132.07 30.5737V30.5737L137.176 33.9776ZM138.937 32.7749L137.101 26.9198L137.018 26.9456L136.937 26.9736L138.937 32.7749ZM143.319 31.4003L145.156 37.2554L148.825 36.1042L149.389 32.2996L143.319 31.4003ZM146.583 23.4965L151.796 26.7352L151.821 26.6947L151.845 26.6537L146.583 23.4965ZM147.958 21.2199L142.744 17.9838L142.728 18.0094L142.713 18.0352L147.958 21.2199ZM150.063 18.9433L153.819 23.7955L153.868 23.7582L153.915 23.72L150.063 18.9433ZM152.812 17.311L155.061 23.0204L155.105 23.0032L155.148 22.9852L152.812 17.311ZM155.733 16.5807L155.209 10.4667L155.201 10.4673L155.194 10.468L155.733 16.5807ZM158.482 16.6237L157.644 22.7026L157.664 22.7054L157.684 22.7081L158.482 16.6237ZM161.961 18.3849L167.289 15.3403L167.25 15.2718L167.209 15.2043L161.961 18.3849ZM162.864 21.6495L156.751 21.1101L156.743 21.1941L156.738 21.2782L162.864 21.6495ZM161.704 23.7972L165.048 28.9423L165.102 28.9075L165.154 28.8716L161.704 23.7972ZM158.783 24.1409L162.101 18.979L161.915 18.8595L161.721 18.7537L158.783 24.1409ZM157.279 22.8522L155.594 16.9518L155.594 16.9518L157.279 22.8522ZM155.905 23.6684L159.672 28.5122L159.754 28.4487L159.833 28.3825L155.905 23.6684ZM154.315 25.2148L149.671 21.2038L149.618 21.2657L149.566 21.3289L154.315 25.2148ZM152.941 27.1477L158.062 30.5293L158.124 30.435L158.183 30.3384L152.941 27.1477ZM152.039 30.3264L154.025 36.1326C154.317 36.0325 155.314 35.8118 157.414 35.6772L157.022 29.5532L156.629 23.4293C154.262 23.5811 151.937 23.8758 150.052 24.5203L152.039 30.3264ZM157.022 29.5532L154.041 34.9175C152.897 34.2816 152.114 33.2541 151.751 32.1913C151.444 31.2907 151.523 30.634 151.537 30.5291L157.623 31.3144L163.709 32.0997C163.952 30.2133 163.786 26.2914 160.002 24.189L157.022 29.5532ZM157.623 31.3144L151.515 30.7233C151.53 30.5711 151.586 30.2244 151.8 29.7876C152.024 29.3287 152.365 28.8906 152.802 28.5415L156.635 33.3333L160.468 38.1251C162.607 36.4142 163.522 34.0617 163.731 31.9055L157.623 31.3144ZM156.635 33.3333L151.529 29.9294C151.38 30.1534 151.303 30.2247 151.32 30.2077C151.341 30.1876 151.49 30.0501 151.782 29.9092L154.444 35.4381L157.106 40.9671C159.215 39.952 160.699 38.3005 161.741 36.7372L156.635 33.3333ZM154.444 35.4381L151.849 29.8774C151.85 29.8772 151.837 29.8831 151.81 29.8941C151.782 29.9051 151.743 29.9201 151.691 29.9386C151.584 29.976 151.436 30.0229 151.24 30.0763L152.855 35.9966L154.47 41.9168C155.32 41.6849 156.201 41.3902 157.039 40.9989L154.444 35.4381ZM152.855 35.9966L151.434 30.0269C150.7 30.2015 149.852 30.4314 148.91 30.7048L150.621 36.5979L152.332 42.4911C153.166 42.249 153.807 42.0779 154.276 41.9662L152.855 35.9966ZM150.621 36.5979L144.842 34.534C144.182 36.3823 143.486 38.7554 142.75 41.5807L148.688 43.1271L154.627 44.6736C155.323 42.0006 155.915 40.0208 156.4 38.6618L150.621 36.5979ZM148.688 43.1271L142.735 41.6388C142.041 44.4147 141.595 46.0759 141.371 46.7951L147.228 48.6254L153.085 50.4558C153.433 49.3422 153.961 47.3379 154.642 44.6155L148.688 43.1271ZM147.228 48.6254L141.368 46.8041C141.058 47.8003 140.849 48.3669 140.739 48.6244C140.675 48.7738 140.721 48.6366 140.888 48.3754C140.97 48.2462 141.183 47.9266 141.541 47.5604C141.728 47.3695 142.009 47.1103 142.388 46.8491C142.766 46.5896 143.321 46.2732 144.047 46.0553L145.81 51.933L147.574 57.8107C149.024 57.3754 149.931 56.5346 150.311 56.1459C150.753 55.6946 151.055 55.2582 151.232 54.9805C151.588 54.4222 151.848 53.8608 152.02 53.4589C152.382 52.6139 152.739 51.5697 153.088 50.4468L147.228 48.6254ZM145.81 51.933L140.639 48.6292C140.543 48.7799 140.551 48.7268 140.709 48.5881C140.879 48.4375 141.221 48.1911 141.742 48.0239L143.62 53.866L145.497 59.7081C148.157 58.8531 149.893 56.9407 150.981 55.2368L145.81 51.933ZM143.62 53.866L141.679 48.0444C141.833 47.9931 142.117 47.9228 142.503 47.9228C142.9 47.9228 143.316 47.998 143.708 48.1514L141.472 53.866L139.236 59.5805C141.431 60.4397 143.644 60.3263 145.56 59.6876L143.62 53.866ZM141.472 53.866L143.488 48.0701C143.828 48.1884 144.188 48.3814 144.52 48.6578C144.848 48.9314 145.07 49.2209 145.208 49.4555L139.925 52.5773L134.642 55.6991C135.713 57.5119 137.354 58.9309 139.456 59.6619L141.472 53.866ZM139.925 52.5773L145.253 49.5328C145.469 49.9096 145.65 50.3983 145.713 50.9654C145.775 51.5278 145.704 52.0104 145.602 52.3625L139.711 50.6443L133.82 48.9261C133.171 51.1513 133.397 53.5213 134.597 55.6219L139.925 52.5773ZM139.711 50.6443L145.803 49.9132C145.832 50.1523 145.818 50.2227 145.822 49.9626C145.825 49.756 145.838 49.4417 145.867 48.9976C145.924 48.1114 146.033 46.8776 146.201 45.2675L140.097 44.6306L133.994 43.9937C133.818 45.6768 133.691 47.0919 133.619 48.2103C133.559 49.148 133.498 50.3738 133.618 51.3755L139.711 50.6443ZM140.097 44.6306L146.201 45.2675C146.521 42.1948 146.749 39.8591 146.749 38.9605H140.613H134.476C134.476 38.8365 134.482 38.8466 134.46 39.1462C134.442 39.3903 134.414 39.7335 134.373 40.1875C134.29 41.0927 134.165 42.3575 133.994 43.9937L140.097 44.6306ZM140.613 38.9605L144.952 34.6213C143.864 33.5331 142.525 32.9149 141.192 32.6927L140.183 38.7457L139.174 44.7987C138.185 44.6338 137.133 44.1588 136.274 43.2996L140.613 38.9605ZM140.183 38.7457L141.192 32.6927C142.202 32.861 144.213 33.5574 145.328 35.7866L139.839 38.5309L134.351 41.2752C135.58 43.7336 137.821 44.5731 139.174 44.7987L140.183 38.7457ZM139.839 38.5309L141.78 32.7093C142.867 33.0718 143.824 33.8181 144.442 34.8061L139.238 38.0584L134.034 41.3107C134.938 42.7569 136.296 43.8183 137.899 44.3525L139.839 38.5309ZM139.238 38.0584L144.4 34.7401C143.835 33.8617 142.944 32.7563 141.579 31.9373L138.422 37.1993L135.265 42.4613C134.472 41.9859 134.125 41.4533 134.076 41.3768L139.238 38.0584ZM138.422 37.1993L137.744 31.1004C138.228 31.0466 138.931 31.0599 139.724 31.3336C140.542 31.6155 141.211 32.0897 141.7 32.6232L137.176 36.7697L132.653 40.9163C134.454 42.8812 136.891 43.5436 139.1 43.2982L138.422 37.1993ZM137.176 36.7697L141.685 32.6075C141.973 32.919 142.27 33.3459 142.487 33.8893C142.706 34.4369 142.797 34.9852 142.797 35.4811H136.661H130.524C130.524 37.5784 131.324 39.477 132.667 40.932L137.176 36.7697ZM136.661 35.4811H142.797C142.797 36.4974 142.428 37.1626 142.282 37.3816L137.176 33.9776L132.07 30.5737C131.237 31.8236 130.524 33.4911 130.524 35.4811H136.661ZM137.176 33.9776L142.282 37.3816C141.626 38.3657 140.861 38.6028 140.938 38.5762L138.937 32.7749L136.937 26.9736C135.353 27.5198 133.414 28.5587 132.07 30.5737L137.176 33.9776ZM138.937 32.7749L140.774 38.63L145.156 37.2554L143.319 31.4003L141.482 25.5452L137.101 26.9198L138.937 32.7749ZM143.319 31.4003L149.389 32.2996C149.565 31.1101 150.212 29.2846 151.796 26.7352L146.583 23.4965L141.371 20.2579C139.29 23.6077 137.76 27.0514 137.249 30.501L143.319 31.4003ZM146.583 23.4965L151.845 26.6537C152.269 25.948 152.721 25.1984 153.203 24.4046L147.958 21.2199L142.713 18.0352C142.221 18.8451 141.757 19.6132 141.321 20.3393L146.583 23.4965ZM147.958 21.2199L153.172 24.4561C153.249 24.3318 153.425 24.1008 153.819 23.7955L150.063 18.9433L146.306 14.091C144.925 15.1603 143.698 16.4471 142.744 17.9838L147.958 21.2199ZM150.063 18.9433L153.915 23.72C154.377 23.3471 154.761 23.1387 155.061 23.0204L152.812 17.311L150.563 11.6015C148.973 12.2278 147.524 13.1076 146.211 14.1666L150.063 18.9433ZM152.812 17.311L155.148 22.9852C155.593 22.8022 155.962 22.7208 156.272 22.6935L155.733 16.5807L155.194 10.468C153.556 10.6125 151.978 11.0179 150.476 11.6367L152.812 17.311ZM155.733 16.5807L156.257 22.6948C156.892 22.6403 157.344 22.6612 157.644 22.7026L158.482 16.6237L159.321 10.5448C157.96 10.357 156.578 10.3493 155.209 10.4667L155.733 16.5807ZM158.482 16.6237L157.684 22.7081C158.098 22.7623 158.106 22.8197 157.891 22.7108C157.63 22.5788 157.12 22.2361 156.714 21.5654L161.961 18.3849L167.209 15.2043C165.215 11.914 161.777 10.8668 159.28 10.5393L158.482 16.6237ZM161.961 18.3849L156.634 21.4294C156.779 21.6832 156.8 21.7824 156.788 21.7374C156.772 21.6825 156.72 21.4577 156.751 21.1101L162.864 21.6495L168.976 22.1888C169.209 19.5471 168.348 17.1931 167.289 15.3403L161.961 18.3849ZM162.864 21.6495L156.738 21.2782C156.755 21.0048 156.836 20.5252 157.131 19.9794C157.435 19.4168 157.851 18.996 158.253 18.7228L161.704 23.7972L165.154 28.8716C167.604 27.206 168.829 24.659 168.989 22.0207L162.864 21.6495ZM161.704 23.7972L158.359 18.6521C158.285 18.7005 158.653 18.4347 159.397 18.3471C160.279 18.2433 161.269 18.4441 162.101 18.979L158.783 24.1409L155.464 29.3027C159.151 31.6727 162.895 30.3417 165.048 28.9423L161.704 23.7972ZM158.783 24.1409L161.721 18.7537C162.968 19.4338 163.611 20.4792 163.874 21.2178L158.095 23.2818L152.317 25.3457C152.867 26.8862 153.967 28.5043 155.844 29.5281L158.783 24.1409ZM158.095 23.2818L163.874 21.2178C163.486 20.1297 162.588 18.4674 160.642 17.4434C158.672 16.4065 156.761 16.6183 155.594 16.9518L157.279 22.8522L158.965 28.7526C158.199 28.9716 156.624 29.1977 154.926 28.304C153.253 27.4232 152.562 26.0329 152.317 25.3457L158.095 23.2818ZM157.279 22.8522L155.594 16.9518C154.021 17.4012 152.795 18.2719 151.976 18.9542L155.905 23.6684L159.833 28.3825C159.902 28.3252 159.879 28.3525 159.768 28.4186C159.662 28.4813 159.39 28.6313 158.965 28.7526L157.279 22.8522ZM155.905 23.6684L152.137 18.8245C151.23 19.5303 150.411 20.3469 149.671 21.2038L154.315 25.2148L158.96 29.2257C159.308 28.8226 159.549 28.6083 159.672 28.5122L155.905 23.6684ZM154.315 25.2148L149.566 21.3289C148.88 22.1668 148.256 23.0426 147.699 23.9571L152.941 27.1477L158.183 30.3384C158.428 29.9356 158.719 29.5227 159.065 29.1006L154.315 25.2148ZM152.941 27.1477L147.82 23.7662C147.167 24.7555 146.458 26.0046 146.06 27.4055C145.678 28.7515 145.309 31.2942 146.933 33.7304L152.039 30.3264L157.145 26.9225C158.368 28.7573 157.948 30.4695 157.867 30.756C157.77 31.0973 157.713 31.0577 158.062 30.5293L152.941 27.1477ZM161.512 31.1426L157.253 26.7253L156.712 27.2469L156.313 27.8836L161.512 31.1426ZM164.176 29.811L164.893 35.9054L164.968 35.8965L165.044 35.8858L164.176 29.811ZM166.796 30.1117L164.224 35.6833L164.264 35.7016L164.304 35.7193L166.796 30.1117ZM168.471 31.7869L162.864 34.2792L162.92 34.4066L162.983 34.5312L168.471 31.7869ZM168.342 34.3642L173.417 37.8148L173.689 37.4148L173.895 36.9771L168.342 34.3642ZM164.433 44.0292L158.537 42.3302L154.076 57.8133L167.706 49.2202L164.433 44.0292ZM171.049 36.5979L176.45 39.51L176.461 39.4896L176.472 39.4691L171.049 36.5979ZM172.724 33.634L177.986 36.7912L178.063 36.6633L178.133 36.5318L172.724 33.634ZM173.368 32.4313L168.164 29.1789L168.056 29.3528L167.959 29.5335L173.368 32.4313ZM174.657 30.3694L179.861 33.6217L180.274 32.9607L180.508 32.2173L174.657 30.3694ZM175.559 29.3385L177.499 35.16L177.67 35.103L177.838 35.0361L175.559 29.3385ZM178.48 29.1237L178.139 35.2507L178.309 35.2602H178.48V29.1237ZM179.897 28.6941L183.301 33.8L183.301 33.8L179.897 28.6941ZM181.401 28.3935L180.49 34.462L180.654 34.4866L180.819 34.5023L181.401 28.3935ZM182.99 28.9519L179.514 34.0086L179.584 34.0572L179.656 34.1039L182.99 28.9519ZM184.064 30.1117L178.575 32.856L178.681 33.0668L178.802 33.2689L184.064 30.1117ZM184.15 31.4003L178.589 28.8053L178.589 28.8053L184.15 31.4003ZM179.21 45.7904L185.073 47.6025L185.082 47.5726L185.091 47.5427L179.21 45.7904ZM177.835 49.7423L182.612 53.5945L183.182 52.8884L183.522 52.0478L177.835 49.7423ZM175.129 51.5464L176.836 57.4409V57.4409L175.129 51.5464ZM172.037 51.8041L172.929 45.7329L172.852 45.7216L172.775 45.7122L172.037 51.8041ZM169.76 50.8162L173.986 46.3672L173.926 46.3103L173.865 46.2549L169.76 50.8162ZM169.373 48.8402L175.085 51.084L183.714 29.1191L165.478 44.0984L169.373 48.8402ZM166.882 50.6443L170.165 55.8285V55.8285L166.882 50.6443ZM163.746 51.7182L162.898 45.6406L162.888 45.642L162.878 45.6434L163.746 51.7182ZM160.267 51.5464L161.791 45.6022L161.719 45.5838L161.647 45.5671L160.267 51.5464ZM157.389 50L153.05 54.3391L153.089 54.3786L153.129 54.4173L157.389 50ZM156.143 46.9072L150.011 47.1401L150.012 47.1599L150.013 47.1797L156.143 46.9072ZM161.512 31.1426L165.772 35.5599C165.779 35.5531 165.7 35.6304 165.524 35.7184C165.34 35.8103 165.12 35.8786 164.893 35.9054L164.176 29.811L163.459 23.7165C160.974 24.0088 158.883 25.1537 157.253 26.7253L161.512 31.1426ZM164.176 29.811L165.044 35.8858C165.102 35.8774 165.039 35.8932 164.883 35.8752C164.718 35.8564 164.486 35.8039 164.224 35.6833L166.796 30.1117L169.368 24.54C167.321 23.5957 165.206 23.4651 163.308 23.7362L164.176 29.811ZM166.796 30.1117L164.304 35.7193C164.052 35.6072 163.746 35.4177 163.456 35.1274C163.165 34.837 162.976 34.5313 162.864 34.2792L168.471 31.7869L174.079 29.2947C173.118 27.1332 171.45 25.4647 169.288 24.5041L166.796 30.1117ZM168.471 31.7869L162.983 34.5312C162.68 33.9264 162.56 33.2721 162.589 32.6832C162.617 32.1406 162.761 31.8131 162.79 31.7514L168.342 34.3642L173.895 36.9771C174.899 34.8434 175.408 31.9396 173.96 29.0426L168.471 31.7869ZM168.342 34.3642L163.268 30.9136C161.984 32.8012 160.969 34.8362 160.222 37.003L166.023 39.0034L171.824 41.0039C172.222 39.8487 172.753 38.791 173.417 37.8148L168.342 34.3642ZM166.023 39.0034L160.222 37.003C159.614 38.7636 159.053 40.5394 158.537 42.3302L164.433 44.0292L170.33 45.7282C170.788 44.1398 171.286 42.5651 171.824 41.0039L166.023 39.0034ZM164.433 44.0292L167.706 49.2202C171.399 46.8922 174.274 43.5465 176.45 39.51L171.049 36.5979L165.647 33.6858C164.272 36.2358 162.737 37.8443 161.161 38.8382L164.433 44.0292ZM171.049 36.5979L176.472 39.4691C176.933 38.5979 177.437 37.7053 177.986 36.7912L172.724 33.634L167.462 30.4768C166.807 31.5673 166.195 32.6507 165.625 33.7267L171.049 36.5979ZM172.724 33.634L178.133 36.5318L178.777 35.329L173.368 32.4313L167.959 29.5335L167.315 30.7362L172.724 33.634ZM173.368 32.4313L178.572 35.6836L179.861 33.6217L174.657 30.3694L169.453 27.1171L168.164 29.1789L173.368 32.4313ZM174.657 30.3694L180.508 32.2173C180.401 32.5581 180.158 33.1403 179.629 33.7445C179.068 34.3864 178.329 34.8836 177.499 35.16L175.559 29.3385L173.618 23.5169C170.843 24.4421 169.398 26.6456 168.805 28.5215L174.657 30.3694ZM175.559 29.3385L177.838 35.0361C177.505 35.1692 177.186 35.2172 176.933 35.2172V29.0807V22.9443C175.707 22.9443 174.472 23.1641 173.28 23.6409L175.559 29.3385ZM176.933 29.0807V35.2172C177.335 35.2172 177.737 35.2284 178.139 35.2507L178.48 29.1237L178.82 22.9967C178.192 22.9617 177.563 22.9443 176.933 22.9443V29.0807ZM178.48 29.1237V35.2602C180.209 35.2602 181.865 34.7573 183.301 33.8L179.897 28.6941L176.493 23.5883C177.07 23.2037 177.782 22.9872 178.48 22.9872V29.1237ZM179.897 28.6941L183.301 33.8C182.856 34.0968 182.342 34.3128 181.799 34.4215C181.267 34.5279 180.814 34.5105 180.49 34.462L181.401 28.3935L182.311 22.3249C180.428 22.0424 178.349 22.3515 176.493 23.5883L179.897 28.6941ZM181.401 28.3935L180.819 34.5023C180.474 34.4694 179.988 34.335 179.514 34.0086L182.99 28.9519L186.467 23.8952C185.075 22.9387 183.53 22.432 181.983 22.2846L181.401 28.3935ZM182.99 28.9519L179.656 34.1039C179.347 33.9035 178.899 33.5026 178.575 32.856L184.064 30.1117L189.553 27.3673C188.771 25.8044 187.607 24.6303 186.324 23.7999L182.99 28.9519ZM184.064 30.1117L178.802 33.2689C178.512 32.7853 178.216 32.0686 178.156 31.1642C178.095 30.2448 178.297 29.4312 178.589 28.8053L184.15 31.4003L189.711 33.9954C190.83 31.5964 190.562 29.0145 189.326 26.9545L184.064 30.1117ZM184.15 31.4003L178.589 28.8053C177.171 31.8433 175.413 37.0447 173.329 44.0381L179.21 45.7904L185.091 47.5427C187.188 40.504 188.723 36.112 189.711 33.9954L184.15 31.4003ZM179.21 45.7904L173.347 43.9782C172.892 45.4523 172.491 46.5924 172.149 47.4368L177.835 49.7423L183.522 52.0478C184.039 50.773 184.555 49.2785 185.073 47.6025L179.21 45.7904ZM177.835 49.7423L173.059 45.8901C173.072 45.8741 173.124 45.8159 173.218 45.7532C173.312 45.6904 173.392 45.661 173.423 45.6519L175.129 51.5464L176.836 57.4409C179.141 56.7735 181.112 55.4546 182.612 53.5945L177.835 49.7423ZM175.129 51.5464L173.423 45.6519C173.233 45.7069 173.104 45.7256 173.03 45.7318C172.993 45.7349 172.968 45.735 172.953 45.7346C172.938 45.7342 172.931 45.7331 172.929 45.7329L172.037 51.8041L171.144 57.8753C173.108 58.1642 175.031 57.9633 176.836 57.4409L175.129 51.5464ZM172.037 51.8041L172.775 45.7122C172.803 45.7157 172.963 45.7387 173.201 45.842C173.45 45.9496 173.728 46.1214 173.986 46.3672L169.76 50.8162L165.533 55.2651C167.245 56.8914 169.319 57.6562 171.298 57.896L172.037 51.8041ZM169.76 50.8162L173.865 46.2549C174.415 46.7498 175.028 47.5927 175.256 48.7573C175.472 49.859 175.235 50.7021 175.085 51.084L169.373 48.8402L163.662 46.5964C163.197 47.7802 162.867 49.3535 163.211 51.1138C163.568 52.937 164.532 54.3671 165.655 55.3774L169.76 50.8162ZM169.373 48.8402L165.478 44.0984C164.867 44.6004 164.241 45.0535 163.599 45.4601L166.882 50.6443L170.165 55.8285C171.241 55.147 172.276 54.3973 173.268 53.582L169.373 48.8402ZM166.882 50.6443L163.599 45.4601C163.624 45.4442 163.452 45.5633 162.898 45.6406L163.746 51.7182L164.594 57.7958C166.503 57.5294 168.422 56.9327 170.165 55.8285L166.882 50.6443ZM163.746 51.7182L162.878 45.6434C162.43 45.7074 162.085 45.6777 161.791 45.6022L160.267 51.5464L158.743 57.4906C160.682 57.9879 162.657 58.0726 164.614 57.793L163.746 51.7182ZM160.267 51.5464L161.647 45.5671C161.617 45.5602 161.603 45.555 161.6 45.5541C161.599 45.5536 161.6 45.5539 161.602 45.5551C161.605 45.5563 161.609 45.5583 161.614 45.5609C161.619 45.5636 161.624 45.5666 161.63 45.5699C161.635 45.5732 161.639 45.5764 161.643 45.5792C161.647 45.5821 161.65 45.5841 161.651 45.585C161.652 45.5859 161.651 45.5853 161.648 45.5827L157.389 50L153.129 54.4173C154.756 55.9857 156.719 57.0255 158.887 57.5257L160.267 51.5464ZM157.389 50L161.728 45.6609C161.935 45.8682 162.094 46.1164 162.19 46.3543C162.279 46.5767 162.276 46.695 162.273 46.6348L156.143 46.9072L150.013 47.1797C150.125 49.7079 151.002 52.2913 153.05 54.3391L157.389 50ZM156.143 46.9072L162.275 46.6744C162.169 43.8935 163.276 39.884 166.712 34.4016L161.512 31.1426L156.313 27.8836C152.246 34.3714 149.773 40.8717 150.011 47.1401L156.143 46.9072ZM189.152 31.4003L186.243 36.8033L188.776 38.1677L191.446 37.092L189.152 31.4003ZM193.018 31.3574L197.677 27.3638L197.646 27.3274L197.614 27.2915L193.018 31.3574ZM193.533 33.2474H187.397V49.7873L198.185 37.2499L193.533 33.2474ZM199.075 30.1546L197.261 24.2921L197.246 24.297L197.23 24.302L199.075 30.1546ZM205.947 29.4244L207.193 23.4157L207.188 23.4145L205.947 29.4244ZM209.899 34.0206L216.002 33.3782L216 33.3606L215.998 33.3429L209.899 34.0206ZM208.396 42.311L213.957 44.906L214.066 44.6711L214.156 44.4278L208.396 42.311ZM207.451 44.4158L201.795 42.0345L201.762 42.1126L201.732 42.1917L207.451 44.4158ZM206.892 45.8333L212.458 48.4175L212.528 48.2667L212.59 48.1124L206.892 45.8333ZM205.131 48.7113L200.146 45.1325L199.909 45.4638L199.717 45.8236L205.131 48.7113ZM202.984 50.6873L200.371 45.1349L200.338 45.1501L200.306 45.1656L202.984 50.6873ZM200.148 51.4605L199.777 45.3352L199.676 45.3414L199.576 45.3508L200.148 51.4605ZM197.872 51.0309L201.102 45.8133L201.01 45.7565L200.916 45.703L197.872 51.0309ZM197.356 49.3557L191.603 47.2214L191.567 47.3177L191.535 47.4151L197.356 49.3557ZM198.989 44.5017L204.876 46.2332V46.2332L198.989 44.5017ZM200.32 40.7646L205.928 43.2569L206.093 42.8857L206.207 42.4961L200.32 40.7646ZM200.492 38.0155L205.177 34.0516L205.116 33.9801L205.053 33.9104L200.492 38.0155ZM199.16 38.1443L196.039 32.8613L195.96 32.9075L195.884 32.956L199.16 38.1443ZM198.001 39.3471L201.594 44.3218L202.815 43.4394L203.489 42.0914L198.001 39.3471ZM195.08 43.8144L200.434 46.8127L200.446 46.7911L200.458 46.7694L195.08 43.8144ZM193.877 45.9622L188.523 42.9639L188.502 43.0015L188.481 43.0395L193.877 45.9622ZM192.803 47.8952L187.475 44.8506L187.419 44.9482L187.367 45.0478L192.803 47.8952ZM191.944 49.3986L186.782 46.0803L186.695 46.215L186.616 46.3541L191.944 49.3986ZM191.3 50.1718L188.255 44.8439L187.786 45.1119L187.371 45.4576L191.3 50.1718ZM190.827 50.4296L189.624 44.4122L188.818 44.5734L188.083 44.9409L190.827 50.4296ZM190.526 50.6014L193.93 55.7072L193.93 55.7072L190.526 50.6014ZM190.312 51.1598L184.274 50.0621L184.27 50.0852L184.266 50.1084L190.312 51.1598ZM188.25 52.6203L186.762 46.667L186.752 46.6695L186.742 46.672L188.25 52.6203ZM182.752 52.3625L180.37 58.0181V58.0181L182.752 52.3625ZM181.463 51.4175L175.974 54.1618L176.253 54.719L176.638 55.2088L181.463 51.4175ZM184.856 37.9725L179.126 35.7778L179.124 35.7826L184.856 37.9725ZM186.875 33.1615L181.749 29.7888L181.692 29.8743L181.639 29.9616L186.875 33.1615ZM188.25 31.3144L184.997 26.1107L184.837 26.211L184.683 26.321L188.25 31.3144ZM189.152 31.4003L191.446 37.092C192.073 36.839 192.066 36.9409 191.626 36.9458C191.364 36.9487 190.866 36.9174 190.251 36.687C189.6 36.443 188.952 36.0231 188.422 35.4232L193.018 31.3574L197.614 27.2915C195.776 25.2133 193.351 24.6529 191.489 24.6736C189.761 24.6928 188.149 25.1885 186.858 25.7086L189.152 31.4003ZM193.018 31.3574L188.359 35.3509C187.456 34.298 187.397 33.2582 187.397 33.0326H193.533H199.67C199.67 31.3752 199.267 29.2185 197.677 27.3638L193.018 31.3574ZM193.533 33.0326H187.397V33.2474H193.533H199.67V33.0326H193.533ZM193.533 33.2474L198.185 37.2499C198.127 37.3171 198.229 37.174 198.704 36.909C199.172 36.6476 199.886 36.3328 200.919 36.0072L199.075 30.1546L197.23 24.302C194.181 25.2631 191.042 26.7341 188.882 29.2449L193.533 33.2474ZM199.075 30.1546L200.888 36.0171C203.193 35.304 204.34 35.3585 204.707 35.4342L205.947 29.4244L207.188 23.4145C203.946 22.7457 200.511 23.287 197.261 24.2921L199.075 30.1546ZM205.947 29.4244L204.702 35.4331C204.775 35.4482 204.705 35.4434 204.555 35.3606C204.394 35.2723 204.209 35.1315 204.044 34.9393C203.696 34.535 203.755 34.2911 203.8 34.6983L209.899 34.0206L215.998 33.3429C215.757 31.1728 215.015 28.8742 213.35 26.9378C211.651 24.9623 209.437 23.8808 207.193 23.4157L205.947 29.4244ZM209.899 34.0206L203.797 34.663C203.884 35.4959 203.724 37.2331 202.636 40.1941L208.396 42.311L214.156 44.4278C215.53 40.6878 216.373 36.8981 216.002 33.3782L209.899 34.0206ZM208.396 42.311L202.835 39.716C202.418 40.609 202.067 41.389 201.795 42.0345L207.451 44.4158L213.106 46.7971C213.293 46.3544 213.572 45.7312 213.957 44.906L208.396 42.311ZM207.451 44.4158L201.732 42.1917C201.537 42.6922 201.358 43.1461 201.195 43.5543L206.892 45.8333L212.59 48.1124C212.77 47.6614 212.964 47.1703 213.17 46.64L207.451 44.4158ZM206.892 45.8333L201.327 43.2492C201.18 43.5659 200.833 44.1767 200.146 45.1325L205.131 48.7113L210.116 52.2902C211.034 51.0123 211.861 49.7044 212.458 48.4175L206.892 45.8333ZM205.131 48.7113L199.717 45.8236C199.813 45.6438 199.945 45.4727 200.096 45.3336C200.242 45.1991 200.353 45.1431 200.371 45.1349L202.984 50.6873L205.596 56.2397C207.634 55.2808 209.4 53.7481 210.546 51.5991L205.131 48.7113ZM202.984 50.6873L200.306 45.1656C200.004 45.3121 199.838 45.3315 199.777 45.3352L200.148 51.4605L200.52 57.5857C202.349 57.4749 204.073 56.9788 205.661 56.209L202.984 50.6873ZM200.148 51.4605L199.576 45.3508C199.588 45.3496 200.265 45.2955 201.102 45.8133L197.872 51.0309L194.642 56.2486C196.681 57.5109 198.876 57.7432 200.721 57.5702L200.148 51.4605ZM197.872 51.0309L200.916 45.703C201.702 46.152 202.701 47.0687 203.157 48.5497C203.57 49.8906 203.298 50.9351 203.178 51.2962L197.356 49.3557L191.535 47.4151C191.157 48.5495 190.842 50.2597 191.427 52.159C192.054 54.1985 193.44 55.5662 194.827 56.3589L197.872 51.0309ZM197.356 49.3557L203.11 51.49C203.806 49.6123 204.398 47.8574 204.876 46.2332L198.989 44.5017L193.102 42.7702C192.72 44.067 192.224 45.5481 191.603 47.2214L197.356 49.3557ZM198.989 44.5017L204.876 46.2332C205.253 44.949 205.61 43.9724 205.928 43.2569L200.32 40.7646L194.713 38.2723C194.114 39.6187 193.583 41.1334 193.102 42.7702L198.989 44.5017ZM200.32 40.7646L206.207 42.4961C206.479 41.5732 206.74 40.48 206.81 39.3647C206.86 38.5659 206.947 36.1439 205.177 34.0516L200.492 38.0155L195.808 41.9793C195.023 41.0519 194.745 40.1177 194.641 39.6001C194.537 39.0787 194.554 38.7082 194.561 38.5992C194.573 38.4003 194.591 38.4955 194.433 39.0331L200.32 40.7646ZM200.492 38.0155L205.053 33.9104C203.405 32.0785 201.187 31.5496 199.375 31.7249C197.864 31.8711 196.691 32.4757 196.039 32.8613L199.16 38.1443L202.282 43.4274C202.26 43.4406 201.624 43.8376 200.557 43.9408C199.962 43.9984 199.151 43.9715 198.253 43.6599C197.323 43.3376 196.533 42.7893 195.931 42.1205L200.492 38.0155ZM199.16 38.1443L195.884 32.956C194.633 33.7456 193.355 34.9166 192.512 36.6028L198.001 39.3471L203.489 42.0914C203.104 42.8611 202.599 43.2303 202.437 43.3326L199.16 38.1443ZM198.001 39.3471L194.408 34.3724C193.595 34.9596 193.023 35.6441 192.736 36.0023C192.384 36.4423 192.052 36.9201 191.748 37.3849C191.137 38.3185 190.45 39.4968 189.702 40.8594L195.08 43.8144L200.458 46.7694C201.141 45.5261 201.657 44.6569 202.02 44.1013C202.203 43.8216 202.3 43.6944 202.32 43.6691C202.328 43.6591 202.286 43.7131 202.197 43.8049C202.121 43.8836 201.917 44.0885 201.594 44.3218L198.001 39.3471ZM195.08 43.8144L189.726 40.8161C189.325 41.532 188.924 42.248 188.523 42.9639L193.877 45.9622L199.231 48.9605C199.632 48.2446 200.033 47.5287 200.434 46.8127L195.08 43.8144ZM193.877 45.9622L188.481 43.0395C188.128 43.691 187.793 44.2943 187.475 44.8506L192.803 47.8952L198.131 50.9397C198.5 50.2933 198.881 49.608 199.273 48.8849L193.877 45.9622ZM192.803 47.8952L187.367 45.0478C187.104 45.5496 186.91 45.8811 186.782 46.0803L191.944 49.3986L197.106 52.717C197.493 52.1143 197.872 51.4435 198.239 50.7426L192.803 47.8952ZM191.944 49.3986L186.616 46.3541C186.618 46.3498 186.707 46.1924 186.897 45.9641C187.065 45.763 187.502 45.2744 188.255 44.8439L191.3 50.1718L194.344 55.4998C196.052 54.524 196.944 53.0179 197.272 52.4432L191.944 49.3986ZM191.3 50.1718L187.371 45.4576C187.603 45.2642 188.37 44.6631 189.624 44.4122L190.827 50.4296L192.031 56.4469C193.571 56.1388 194.652 55.3658 195.228 54.886L191.3 50.1718ZM190.827 50.4296L188.083 44.9409C187.792 45.0862 187.463 45.2684 187.123 45.4955L190.526 50.6014L193.93 55.7072C193.761 55.8198 193.633 55.8875 193.571 55.9182L190.827 50.4296ZM190.526 50.6014L187.123 45.4955C185.419 46.631 184.813 48.2364 184.681 48.5811C184.451 49.18 184.336 49.7242 184.274 50.0621L190.312 51.1598L196.349 52.2575C196.345 52.2803 196.295 52.5741 196.136 52.9868C196.054 53.1999 195.895 53.572 195.617 54.0021C195.352 54.4112 194.828 55.1088 193.93 55.7072L190.526 50.6014ZM190.312 51.1598L184.266 50.1084C184.554 48.4515 185.546 47.4487 186.163 47.0114C186.684 46.6425 187.01 46.6048 186.762 46.667L188.25 52.6203L189.738 58.5735C190.749 58.3207 192.049 57.8822 193.257 57.0264C194.562 56.1023 195.955 54.5268 196.357 52.2112L190.312 51.1598ZM188.25 52.6203L186.742 46.672C185.756 46.9219 185.32 46.7856 185.133 46.7069L182.752 52.3625L180.37 58.0181C183.448 59.314 186.677 59.3496 189.758 58.5686L188.25 52.6203ZM182.752 52.3625L185.133 46.7069C185.396 46.8176 185.865 47.0873 186.288 47.6263L181.463 51.4175L176.638 55.2088C177.691 56.5496 179.019 57.4493 180.37 58.0181L182.752 52.3625ZM181.463 51.4175L186.952 48.6732C187.578 49.9268 187.379 50.8401 187.421 50.3346C187.441 50.0854 187.525 49.5288 187.767 48.57C188.245 46.6748 189.16 43.9034 190.589 40.1624L184.856 37.9725L179.124 35.7826C177.632 39.6876 176.52 42.9802 175.867 45.5666C175.544 46.8486 175.286 48.1374 175.188 49.3379C175.111 50.2821 175.018 52.2496 175.974 54.1618L181.463 51.4175ZM184.856 37.9725L190.587 40.1672C191.092 38.848 191.492 37.8418 191.793 37.1254C191.943 36.7663 192.056 36.5123 192.134 36.3451C192.232 36.1343 192.217 36.1889 192.111 36.3614L186.875 33.1615L181.639 29.9616C181.201 30.678 180.787 31.6338 180.476 32.3763C180.104 33.2635 179.651 34.4051 179.126 35.7778L184.856 37.9725ZM186.875 33.1615L192.002 36.5342C192.162 36.2899 192.3 36.0849 192.417 35.9158C192.535 35.7446 192.621 35.6249 192.679 35.5471C192.707 35.5092 192.723 35.4889 192.728 35.4829C192.733 35.4755 192.718 35.4947 192.686 35.5327C192.656 35.5665 192.583 35.6496 192.472 35.7588C192.415 35.8153 192.335 35.8911 192.235 35.9782C192.137 36.0632 191.996 36.1795 191.817 36.3079L188.25 31.3144L184.683 26.321C184.015 26.798 183.56 27.3235 183.417 27.4881C183.196 27.7423 182.997 27.9998 182.833 28.22C182.501 28.6656 182.134 29.2036 181.749 29.7888L186.875 33.1615ZM188.25 31.3144L191.502 36.5181C190.338 37.2455 189.091 37.435 188.065 37.3373C187.144 37.2496 186.509 36.947 186.243 36.8033L189.152 31.4003L192.061 25.9973C190.922 25.3838 188.002 24.2326 184.997 26.1107L188.25 31.3144Z" fill="white" mask="url(#path-2-outside-1_139_16)"/>
</svg>
