<svg width="40" height="40" viewBox="0 0 40 40" fill="none" xmlns="http://www.w3.org/2000/svg">
<path fill-rule="evenodd" clip-rule="evenodd" d="M20 13.3333C16.3181 13.3333 13.3333 16.3181 13.3333 20C13.3333 23.6818 16.3181 26.6667 20 26.6667C23.6818 26.6667 26.6667 23.6818 26.6667 20C26.6667 19.0795 27.4128 18.3333 28.3333 18.3333C29.2538 18.3333 30 19.0795 30 20C30 25.5228 25.5228 30 20 30C14.4771 30 10 25.5228 10 20C10 14.4771 14.4771 10 20 10C20.9205 10 21.6667 10.7462 21.6667 11.6667C21.6667 12.5871 20.9205 13.3333 20 13.3333Z" fill="#FF8400"/>
<path fill-rule="evenodd" clip-rule="evenodd" d="M20.0003 5.00033C11.7161 5.00033 5.00033 11.7161 5.00033 20.0003C5.00033 28.2847 11.7161 35.0003 20.0003 35.0003C28.2847 35.0003 35.0003 28.2847 35.0003 20.0003C35.0003 18.9708 34.8968 17.967 34.7003 16.9985C34.5172 16.0965 35.1 15.2167 36.002 15.0336C36.9042 14.8505 37.7838 15.4334 37.967 16.3354C38.2077 17.521 38.3337 18.7468 38.3337 20.0003C38.3337 30.1255 30.1255 38.3337 20.0003 38.3337C9.87511 38.3337 1.66699 30.1255 1.66699 20.0003C1.66699 9.87511 9.87511 1.66699 20.0003 1.66699C21.2538 1.66699 22.4797 1.79304 23.6652 2.03369C24.5673 2.21681 25.1502 3.09653 24.967 3.99861C24.7838 4.90069 23.9042 5.48353 23.0022 5.30041C22.0337 5.10381 21.0298 5.00033 20.0003 5.00033Z" fill="#FF8400"/>
<path d="M33.5698 3.46321C33.3071 2.45634 32.4935 1.83817 31.6206 1.69874C30.7793 1.56436 29.927 1.86306 29.3178 2.47212L27.4021 4.38776C25.2865 6.50344 25.1095 9.11062 25.8178 11.8254L18.8211 18.822C18.1703 19.4728 18.1703 20.5282 18.8211 21.179C19.472 21.83 20.5273 21.83 21.1781 21.179L28.1748 14.1824C30.8895 14.8907 33.4968 14.7136 35.6125 12.598L37.528 10.6823C38.1371 10.0732 38.4358 9.22086 38.3015 8.37961C38.162 7.50671 37.5438 6.69302 36.537 6.43032L34.1838 5.81636L33.5698 3.46321Z" fill="#FF8400"/>
</svg>
