<svg width="40" height="40" viewBox="0 0 40 40" fill="none" xmlns="http://www.w3.org/2000/svg">
<path fill-rule="evenodd" clip-rule="evenodd" d="M12.5438 10.6977C12.998 10.3279 13.6481 10.323 14.1077 10.686L23.1405 17.8187C25.0557 19.331 25.0655 22.2188 23.1605 23.744C21.2668 25.2602 18.4392 24.6545 17.3503 22.4802L12.2154 12.2267C11.9531 11.703 12.0897 11.0675 12.5438 10.6977Z" fill="#FF8400"/>
<path fill-rule="evenodd" clip-rule="evenodd" d="M18.3337 3.33366C18.3337 2.41319 19.0798 1.66699 20.0003 1.66699C30.1255 1.66699 38.3337 9.87511 38.3337 20.0003C38.3337 30.1255 30.1255 38.3337 20.0003 38.3337C9.87511 38.3337 1.66699 30.1255 1.66699 20.0003C1.66699 14.8721 3.77473 10.2332 7.16693 6.90778C7.82423 6.26339 8.87946 6.27389 9.52383 6.93119C10.1682 7.58851 10.1577 8.64373 9.50039 9.28811C6.72138 12.0124 5.00033 15.8039 5.00033 20.0003C5.00033 28.2847 11.7161 35.0003 20.0003 35.0003C28.2847 35.0003 35.0003 28.2847 35.0003 20.0003C35.0003 12.2794 29.167 5.92094 21.667 5.09188V7.50033C21.667 8.42079 20.9208 9.16699 20.0003 9.16699C19.0798 9.16699 18.3337 8.42079 18.3337 7.50033V3.33366Z" fill="#FF8400"/>
</svg>
